G04 #@! TF.GenerationSoftware,KiCad,Pcbnew,(6.0.0-rc1-57-gf03efa1cba)*
G04 #@! TF.CreationDate,2022-06-21T22:52:06+02:00*
G04 #@! TF.ProjectId,FilamentDryer,46696c61-6d65-46e7-9444-727965722e6b,3.7*
G04 #@! TF.SameCoordinates,Original*
G04 #@! TF.FileFunction,Legend,Bot*
G04 #@! TF.FilePolarity,Positive*
%FSLAX46Y46*%
G04 Gerber Fmt 4.6, Leading zero omitted, Abs format (unit mm)*
G04 Created by KiCad (PCBNEW (6.0.0-rc1-57-gf03efa1cba)) date 2022-06-21 22:52:06*
%MOMM*%
%LPD*%
G01*
G04 APERTURE LIST*
%ADD10C,0.150000*%
%ADD11R,1.700000X1.700000*%
%ADD12O,1.700000X1.700000*%
%ADD13C,1.600000*%
%ADD14O,1.600000X1.600000*%
%ADD15O,3.500000X3.500000*%
%ADD16R,2.000000X1.905000*%
%ADD17O,2.000000X1.905000*%
%ADD18C,5.600000*%
%ADD19C,1.100000*%
%ADD20R,2.030000X1.730000*%
%ADD21O,2.030000X1.730000*%
%ADD22R,1.905000X2.000000*%
%ADD23O,1.905000X2.000000*%
%ADD24C,1.700000*%
%ADD25R,1.600000X1.600000*%
%ADD26C,1.524000*%
%ADD27C,4.030000*%
%ADD28R,2.000000X2.000000*%
G04 APERTURE END LIST*
D10*
X216074047Y-124547380D02*
X216074047Y-125261666D01*
X216121666Y-125404523D01*
X216216904Y-125499761D01*
X216359761Y-125547380D01*
X216455000Y-125547380D01*
X215121666Y-125547380D02*
X215597857Y-125547380D01*
X215597857Y-124547380D01*
X214216904Y-125452142D02*
X214264523Y-125499761D01*
X214407380Y-125547380D01*
X214502619Y-125547380D01*
X214645476Y-125499761D01*
X214740714Y-125404523D01*
X214788333Y-125309285D01*
X214835952Y-125118809D01*
X214835952Y-124975952D01*
X214788333Y-124785476D01*
X214740714Y-124690238D01*
X214645476Y-124595000D01*
X214502619Y-124547380D01*
X214407380Y-124547380D01*
X214264523Y-124595000D01*
X214216904Y-124642619D01*
X213502619Y-124547380D02*
X213502619Y-125261666D01*
X213550238Y-125404523D01*
X213645476Y-125499761D01*
X213788333Y-125547380D01*
X213883571Y-125547380D01*
X212550238Y-125547380D02*
X213026428Y-125547380D01*
X213026428Y-124547380D01*
X211645476Y-125452142D02*
X211693095Y-125499761D01*
X211835952Y-125547380D01*
X211931190Y-125547380D01*
X212074047Y-125499761D01*
X212169285Y-125404523D01*
X212216904Y-125309285D01*
X212264523Y-125118809D01*
X212264523Y-124975952D01*
X212216904Y-124785476D01*
X212169285Y-124690238D01*
X212074047Y-124595000D01*
X211931190Y-124547380D01*
X211835952Y-124547380D01*
X211693095Y-124595000D01*
X211645476Y-124642619D01*
X210931190Y-124547380D02*
X210931190Y-125261666D01*
X210978809Y-125404523D01*
X211074047Y-125499761D01*
X211216904Y-125547380D01*
X211312142Y-125547380D01*
X209978809Y-125547380D02*
X210455000Y-125547380D01*
X210455000Y-124547380D01*
X209074047Y-125452142D02*
X209121666Y-125499761D01*
X209264523Y-125547380D01*
X209359761Y-125547380D01*
X209502619Y-125499761D01*
X209597857Y-125404523D01*
X209645476Y-125309285D01*
X209693095Y-125118809D01*
X209693095Y-124975952D01*
X209645476Y-124785476D01*
X209597857Y-124690238D01*
X209502619Y-124595000D01*
X209359761Y-124547380D01*
X209264523Y-124547380D01*
X209121666Y-124595000D01*
X209074047Y-124642619D01*
X208359761Y-124547380D02*
X208359761Y-125261666D01*
X208407380Y-125404523D01*
X208502619Y-125499761D01*
X208645476Y-125547380D01*
X208740714Y-125547380D01*
X207407380Y-125547380D02*
X207883571Y-125547380D01*
X207883571Y-124547380D01*
X206502619Y-125452142D02*
X206550238Y-125499761D01*
X206693095Y-125547380D01*
X206788333Y-125547380D01*
X206931190Y-125499761D01*
X207026428Y-125404523D01*
X207074047Y-125309285D01*
X207121666Y-125118809D01*
X207121666Y-124975952D01*
X207074047Y-124785476D01*
X207026428Y-124690238D01*
X206931190Y-124595000D01*
X206788333Y-124547380D01*
X206693095Y-124547380D01*
X206550238Y-124595000D01*
X206502619Y-124642619D01*
%LPC*%
D11*
X163830000Y-77152500D03*
D12*
X163830000Y-79692500D03*
X163830000Y-82232500D03*
X163830000Y-84772500D03*
D13*
X160655000Y-54356000D03*
D14*
X160655000Y-64516000D03*
D15*
X140550000Y-59258200D03*
D16*
X157210000Y-56718200D03*
D17*
X157210000Y-59258200D03*
X157210000Y-61798200D03*
D11*
X165735000Y-127000000D03*
D12*
X168275000Y-127000000D03*
D18*
X221000000Y-126000000D03*
D11*
X172080000Y-127000000D03*
D12*
X174620000Y-127000000D03*
D13*
X199390000Y-92710000D03*
D14*
X209550000Y-92710000D03*
D11*
X169545000Y-95935800D03*
D12*
X169545000Y-98475800D03*
D19*
X184705000Y-82560000D03*
D20*
X182545000Y-77480000D03*
D21*
X182545000Y-80020000D03*
X182545000Y-82560000D03*
X182545000Y-85100000D03*
D11*
X191760000Y-89847500D03*
D12*
X189220000Y-89847500D03*
X186680000Y-89847500D03*
X184140000Y-89847500D03*
D15*
X218440000Y-112967000D03*
D22*
X215900000Y-96307000D03*
D23*
X218440000Y-96307000D03*
X220980000Y-96307000D03*
D11*
X130048000Y-62992000D03*
D12*
X132588000Y-62992000D03*
D18*
X131064000Y-56000000D03*
D13*
X213360000Y-92710000D03*
D14*
X223520000Y-92710000D03*
D11*
X191130000Y-127000000D03*
D12*
X193670000Y-127000000D03*
D24*
X213614000Y-83820000D03*
X208534000Y-83820000D03*
D25*
X132080000Y-71755000D03*
D14*
X132080000Y-74295000D03*
X132080000Y-76835000D03*
X132080000Y-79375000D03*
X132080000Y-81915000D03*
X132080000Y-84455000D03*
X132080000Y-86995000D03*
X132080000Y-89535000D03*
X132080000Y-92075000D03*
X132080000Y-94615000D03*
X132080000Y-97155000D03*
X132080000Y-99695000D03*
X132080000Y-102235000D03*
X132080000Y-104775000D03*
X132080000Y-107315000D03*
X147320000Y-107315000D03*
X147320000Y-104775000D03*
X147320000Y-102235000D03*
X147320000Y-99695000D03*
X147320000Y-97155000D03*
X147320000Y-94615000D03*
X147320000Y-92075000D03*
X147320000Y-89535000D03*
X147320000Y-86995000D03*
X147320000Y-84455000D03*
X147320000Y-81915000D03*
X147320000Y-79375000D03*
X147320000Y-76835000D03*
X147320000Y-74295000D03*
X147320000Y-71755000D03*
D26*
X165735000Y-121195000D03*
X168275000Y-121195000D03*
X170815000Y-121195000D03*
X173355000Y-121195000D03*
X175895000Y-121195000D03*
X178435000Y-121195000D03*
X180975000Y-121195000D03*
X183515000Y-121195000D03*
X186055000Y-121195000D03*
X188595000Y-121195000D03*
X191135000Y-121195000D03*
X193675000Y-121195000D03*
X193675000Y-103595000D03*
X191135000Y-103595000D03*
X188595000Y-103595000D03*
X186055000Y-103595000D03*
X183515000Y-103595000D03*
X180975000Y-103595000D03*
X178435000Y-103595000D03*
X175895000Y-103595000D03*
X173355000Y-103595000D03*
X170815000Y-103595000D03*
X168275000Y-103595000D03*
X165735000Y-103595000D03*
D13*
X213360000Y-88900000D03*
D14*
X223520000Y-88900000D03*
D11*
X184785000Y-127000000D03*
D12*
X187325000Y-127000000D03*
D11*
X184160000Y-98425000D03*
D12*
X186700000Y-98425000D03*
X189240000Y-98425000D03*
X191780000Y-98425000D03*
D13*
X199390000Y-88900000D03*
D14*
X209550000Y-88900000D03*
D11*
X146685000Y-118369000D03*
D12*
X146685000Y-115829000D03*
X149225000Y-118369000D03*
X149225000Y-115829000D03*
X151765000Y-118369000D03*
X151765000Y-115829000D03*
X154305000Y-118369000D03*
X154305000Y-115829000D03*
D24*
X223520000Y-68000000D03*
X218440000Y-68000000D03*
D11*
X178430000Y-127000000D03*
D12*
X180970000Y-127000000D03*
D11*
X171450000Y-77152500D03*
D12*
X171450000Y-79692500D03*
X171450000Y-82232500D03*
X171450000Y-84772500D03*
D15*
X204470000Y-112967000D03*
D22*
X201930000Y-96307000D03*
D23*
X204470000Y-96307000D03*
X207010000Y-96307000D03*
D24*
X223540000Y-83820000D03*
X218460000Y-83820000D03*
D18*
X131000000Y-126000000D03*
D13*
X164465000Y-54356000D03*
D14*
X164465000Y-64516000D03*
D24*
X223520000Y-74930000D03*
X218440000Y-74930000D03*
X223520000Y-62690000D03*
X218440000Y-62690000D03*
D11*
X165715000Y-95945000D03*
D12*
X165715000Y-98485000D03*
D11*
X161290000Y-127000000D03*
D12*
X158750000Y-127000000D03*
X156210000Y-127000000D03*
X153670000Y-127000000D03*
D13*
X176530000Y-92710000D03*
D14*
X176530000Y-82550000D03*
D11*
X146685000Y-123820000D03*
D12*
X146685000Y-126360000D03*
D18*
X221000000Y-56000000D03*
D27*
X176784000Y-55499000D03*
X206756000Y-71501000D03*
D28*
X211518500Y-72072500D03*
X211518500Y-54927500D03*
X172021500Y-72072500D03*
X172021500Y-54927500D03*
D24*
X158750000Y-120650000D03*
X158750000Y-115570000D03*
M02*
