M48
; DRILL file {KiCad (6.0.0-rc1-57-gf03efa1cba)} date Tue Jun 21 22:52:22 2022
; FORMAT={-:-/ absolute / metric / decimal}
; #@! TF.CreationDate,2022-06-21T22:52:22+02:00
; #@! TF.GenerationSoftware,Kicad,Pcbnew,(6.0.0-rc1-57-gf03efa1cba)
; #@! TF.FileFunction,Plated,1,2,PTH
FMAT,2
METRIC
; #@! TA.AperFunction,Plated,PTH,ViaDrill
T1C0.400
; #@! TA.AperFunction,Plated,PTH,ComponentDrill
T2C0.762
; #@! TA.AperFunction,Plated,PTH,ComponentDrill
T3C0.800
; #@! TA.AperFunction,Plated,PTH,ComponentDrill
T4C1.000
; #@! TA.AperFunction,Plated,PTH,ComponentDrill
T5C1.020
; #@! TA.AperFunction,Plated,PTH,ComponentDrill
T6C1.100
; #@! TA.AperFunction,Plated,PTH,ComponentDrill
T7C1.500
; #@! TA.AperFunction,Plated,PTH,ComponentDrill
T8C3.200
; #@! TA.AperFunction,Plated,PTH,ComponentDrill
T9C3.300
%
G90
G05
T1
X127.635Y-69.85
X127.635Y-118.0
X138.43Y-109.22
X139.065Y-90.805
X140.716Y-68.58
X140.97Y-92.075
X140.97Y-118.745
X144.145Y-67.31
X147.32Y-129.54
X149.86Y-71.12
X149.86Y-82.55
X149.86Y-87.63
X150.495Y-99.695
X151.13Y-69.85
X151.13Y-81.28
X151.13Y-86.995
X151.13Y-89.535
X154.94Y-91.44
X155.0Y-72.0
X156.21Y-100.33
X157.48Y-106.045
X158.0Y-52.0
X158.115Y-66.04
X158.75Y-90.17
X158.75Y-104.14
X160.02Y-99.06
X160.02Y-102.87
X161.29Y-99.06
X161.29Y-101.6
X161.925Y-83.82
X161.925Y-86.995
X161.925Y-113.03
X162.56Y-114.935
X165.735Y-107.315
X167.005Y-119.38
X167.64Y-118.11
X168.275Y-107.315
X175.895Y-116.84
X176.0Y-79.0
X176.53Y-62.23
X176.53Y-64.135
X179.115Y-115.615
X180.34Y-99.06
X184.785Y-114.3
X186.0Y-52.0
X186.055Y-63.0
X186.055Y-113.03
X187.325Y-111.76
X188.595Y-110.49
X189.0Y-84.0
X189.865Y-77.47
X189.865Y-109.22
X191.135Y-76.835
X191.135Y-107.95
X192.405Y-106.68
X193.04Y-80.645
X193.675Y-105.41
X193.802Y-116.332
X194.056Y-112.776
X194.31Y-80.01
X195.834Y-110.744
X197.0Y-88.0
X198.12Y-105.0
X198.755Y-127.0
X200.406Y-125.095
X204.0Y-124.0
X211.43Y-115.773
X211.455Y-97.155
X211.455Y-107.315
X215.0Y-52.0
T2
X165.735Y-103.595
X165.735Y-121.195
X168.275Y-103.595
X168.275Y-121.195
X170.815Y-103.595
X170.815Y-121.195
X173.355Y-103.595
X173.355Y-121.195
X175.895Y-103.595
X175.895Y-121.195
X178.435Y-103.595
X178.435Y-121.195
X180.975Y-103.595
X180.975Y-121.195
X183.515Y-103.595
X183.515Y-121.195
X186.055Y-103.595
X186.055Y-121.195
X188.595Y-103.595
X188.595Y-121.195
X191.135Y-103.595
X191.135Y-121.195
X193.675Y-103.595
X193.675Y-121.195
T3
X160.655Y-54.356
X160.655Y-64.516
X164.465Y-54.356
X164.465Y-64.516
X176.53Y-82.55
X176.53Y-92.71
X199.39Y-88.9
X199.39Y-92.71
X209.55Y-88.9
X209.55Y-92.71
X213.36Y-88.9
X213.36Y-92.71
X223.52Y-88.9
X223.52Y-92.71
T4
X130.048Y-62.992
X132.08Y-71.755
X132.08Y-74.295
X132.08Y-76.835
X132.08Y-79.375
X132.08Y-81.915
X132.08Y-84.455
X132.08Y-86.995
X132.08Y-89.535
X132.08Y-92.075
X132.08Y-94.615
X132.08Y-97.155
X132.08Y-99.695
X132.08Y-102.235
X132.08Y-104.775
X132.08Y-107.315
X132.588Y-62.992
X146.685Y-115.829
X146.685Y-118.369
X146.685Y-123.82
X146.685Y-126.36
X147.32Y-71.755
X147.32Y-74.295
X147.32Y-76.835
X147.32Y-79.375
X147.32Y-81.915
X147.32Y-84.455
X147.32Y-86.995
X147.32Y-89.535
X147.32Y-92.075
X147.32Y-94.615
X147.32Y-97.155
X147.32Y-99.695
X147.32Y-102.235
X147.32Y-104.775
X147.32Y-107.315
X149.225Y-115.829
X149.225Y-118.369
X151.765Y-115.829
X151.765Y-118.369
X153.67Y-127.0
X154.305Y-115.829
X154.305Y-118.369
X156.21Y-127.0
X158.75Y-115.57
X158.75Y-120.65
X158.75Y-127.0
X161.29Y-127.0
X163.83Y-77.153
X163.83Y-79.692
X163.83Y-82.233
X163.83Y-84.772
X165.715Y-95.945
X165.715Y-98.485
X165.735Y-127.0
X168.275Y-127.0
X169.545Y-95.936
X169.545Y-98.476
X171.45Y-77.153
X171.45Y-79.692
X171.45Y-82.233
X171.45Y-84.772
X172.08Y-127.0
X174.62Y-127.0
X178.43Y-127.0
X180.97Y-127.0
X184.14Y-89.847
X184.16Y-98.425
X184.785Y-127.0
X186.68Y-89.847
X186.7Y-98.425
X187.325Y-127.0
X189.22Y-89.847
X189.24Y-98.425
X191.13Y-127.0
X191.76Y-89.847
X191.78Y-98.425
X193.67Y-127.0
X208.534Y-83.82
X213.614Y-83.82
X218.44Y-62.69
X218.44Y-68.0
X218.44Y-74.93
X218.46Y-83.82
X223.52Y-62.69
X223.52Y-68.0
X223.52Y-74.93
X223.54Y-83.82
T5
X182.545Y-77.48
X182.545Y-80.02
X182.545Y-82.56
X182.545Y-85.1
T6
X157.21Y-56.718
X157.21Y-59.258
X157.21Y-61.798
X201.93Y-96.307
X204.47Y-96.307
X207.01Y-96.307
X215.9Y-96.307
X218.44Y-96.307
X220.98Y-96.307
T7
X172.022Y-54.927
X172.022Y-72.072
X211.518Y-54.927
X211.518Y-72.072
T8
X131.0Y-126.0
X131.064Y-56.0
X221.0Y-56.0
X221.0Y-126.0
T9
X176.784Y-55.499
X206.756Y-71.501
T0
M30
