<?xml version="1.0" standalone="no"?>
 <!DOCTYPE svg PUBLIC "-//W3C//DTD SVG 1.1//EN" 
 "http://www.w3.org/Graphics/SVG/1.1/DTD/svg11.dtd"> 
<svg
  xmlns:svg="http://www.w3.org/2000/svg"
  xmlns="http://www.w3.org/2000/svg"
  xmlns:xlink="http://www.w3.org/1999/xlink"
  version="1.1"
  width="29.700220cm" height="21.000720cm" viewBox="0 0 116930 82680">
<title>SVG Picture created as FilamentDryer-PTH-drl_map.svg date 2022/06/24 17:11:56 </title>
  <desc>Picture generated by PCBNEW </desc>
<g style="fill:#000000; fill-opacity:1.000000;stroke:#000000; stroke-opacity:1.000000;
stroke-linecap:round; stroke-linejoin:round;"
 transform="translate(0 0) scale(1 1)">
</g>
<g style="fill:#000000; fill-opacity:0.0; 
stroke:#000000; stroke-width:0.000000; stroke-opacity:1; 
stroke-linecap:round; stroke-linejoin:round;">
</g>
<g style="fill:#000000; fill-opacity:0.0; 
stroke:#000000; stroke-width:57.017468; stroke-opacity:1; 
stroke-linecap:round; stroke-linejoin:round;">
<path d="M84122 47610
L32807 47610
" />
<path d="M84122.860614 47610.987538 A2850.873416 2850.873416 0.0 0 0 86973.734030 44760.114122" />
<path d="M29956 4847
L29956 44760
" />
<path d="M32807.139124 1997.012881 A2850.873416 2850.873416 0.0 0 0 29956.265708 4847.886297" />
<path d="M84122 1997
L32807 1997
" />
<path d="M86973.734030 4847.886297 A2850.873416 2850.873416 0.0 0 0 84122.860614 1997.012881" />
<path d="M29956.265708 44760.114122 A2850.873416 2850.873416 0.0 0 0 32807.139124 47610.987538" />
<path d="M86973 4847
L86973 44760
" />
</g>
<g style="fill:#000000; fill-opacity:0.0; 
stroke:#000000; stroke-width:114.034937; stroke-opacity:1; 
stroke-linecap:round; stroke-linejoin:round;">
</g>
<g style="fill:#000000; fill-opacity:0.0; 
stroke:#000000; stroke-width:22.806987; stroke-opacity:1; 
stroke-linecap:round; stroke-linejoin:round;">
<path d="M30774 12630
L31002 12858
" />
<path d="M31002 12630
L30774 12858
" />
<path d="M30774 40084
L31002 40312
" />
<path d="M31002 40084
L30774 40312
" />
<path d="M36929 35078
L37157 35306
" />
<path d="M37157 35078
L36929 35306
" />
<path d="M37291 24578
L37519 24806
" />
<path d="M37519 24578
L37291 24806
" />
<path d="M38232 11906
L38460 12134
" />
<path d="M38460 11906
L38232 12134
" />
<path d="M38377 25302
L38605 25530
" />
<path d="M38605 25302
L38377 25530
" />
<path d="M38377 40509
L38605 40737
" />
<path d="M38605 40509
L38377 40737
" />
<path d="M40188 11182
L40416 11410
" />
<path d="M40416 11182
L40188 11410
" />
<path d="M41998 46664
L42226 46892
" />
<path d="M42226 46664
L41998 46892
" />
<path d="M43446 13354
L43674 13582
" />
<path d="M43674 13354
L43446 13582
" />
<path d="M43446 19871
L43674 20100
" />
<path d="M43674 19871
L43446 20100
" />
<path d="M43446 22768
L43674 22996
" />
<path d="M43674 22768
L43446 22996
" />
<path d="M43808 29647
L44036 29875
" />
<path d="M44036 29647
L43808 29875
" />
<path d="M44170 12630
L44398 12858
" />
<path d="M44398 12630
L44170 12858
" />
<path d="M44170 19147
L44398 19375
" />
<path d="M44398 19147
L44170 19375
" />
<path d="M44170 22406
L44398 22634
" />
<path d="M44398 22406
L44170 22634
" />
<path d="M44170 23854
L44398 24082
" />
<path d="M44398 23854
L44170 24082
" />
<path d="M46343 24940
L46571 25168
" />
<path d="M46571 24940
L46343 25168
" />
<path d="M46377 13856
L46605 14084
" />
<path d="M46605 13856
L46377 14084
" />
<path d="M47067 30009
L47295 30237
" />
<path d="M47295 30009
L47067 30237
" />
<path d="M47791 33268
L48019 33496
" />
<path d="M48019 33268
L47791 33496
" />
<path d="M48087 2453
L48315 2681
" />
<path d="M48315 2453
L48087 2681
" />
<path d="M48153 10458
L48381 10686
" />
<path d="M48381 10458
L48153 10686
" />
<path d="M48515 24216
L48743 24444
" />
<path d="M48743 24216
L48515 24444
" />
<path d="M48515 32182
L48743 32410
" />
<path d="M48743 32182
L48515 32410
" />
<path d="M49239 29285
L49467 29513
" />
<path d="M49467 29285
L49239 29513
" />
<path d="M49239 31457
L49467 31686
" />
<path d="M49467 31457
L49239 31686
" />
<path d="M49963 29285
L50191 29513
" />
<path d="M50191 29285
L49963 29513
" />
<path d="M49963 30733
L50191 30961
" />
<path d="M50191 30733
L49963 30961
" />
<path d="M50325 20596
L50553 20824
" />
<path d="M50553 20596
L50325 20824
" />
<path d="M50325 22406
L50553 22634
" />
<path d="M50553 22406
L50325 22634
" />
<path d="M50687 37106
L50915 37334
" />
<path d="M50915 37106
L50687 37334
" />
<path d="M50977 38554
L51205 38782
" />
<path d="M51205 38554
L50977 38782
" />
<path d="M52498 33992
L52726 34220
" />
<path d="M52726 33992
L52498 34220
" />
<path d="M53005 40581
L53233 40809
" />
<path d="M53233 40581
L53005 40809
" />
<path d="M53584 40002
L53812 40230
" />
<path d="M53812 40002
L53584 40230
" />
<path d="M53946 33992
L54174 34220
" />
<path d="M54174 33992
L53946 34220
" />
<path d="M58350 17847
L58579 18075
" />
<path d="M58579 17847
L58350 18075
" />
<path d="M58653 8286
L58881 8514
" />
<path d="M58881 8286
L58653 8514
" />
<path d="M58653 9372
L58881 9600
" />
<path d="M58881 9372
L58653 9600
" />
<path d="M60825 29285
L61053 29513
" />
<path d="M61053 29285
L60825 29513
" />
<path d="M63359 37975
L63588 38203
" />
<path d="M63588 37975
L63359 38203
" />
<path d="M64052 2453
L64280 2681
" />
<path d="M64280 2453
L64052 2681
" />
<path d="M64084 8725
L64312 8953
" />
<path d="M64312 8725
L64084 8953
" />
<path d="M64084 37250
L64312 37478
" />
<path d="M64312 37250
L64084 37478
" />
<path d="M64808 36526
L65036 36754
" />
<path d="M65036 36526
L64808 36754
" />
<path d="M65532 35802
L65760 36030
" />
<path d="M65760 35802
L65532 36030
" />
<path d="M65763 20698
L65991 20926
" />
<path d="M65991 20698
L65763 20926
" />
<path d="M66256 16975
L66484 17203
" />
<path d="M66484 16975
L66256 17203
" />
<path d="M66256 35078
L66484 35306
" />
<path d="M66484 35078
L66256 35306
" />
<path d="M66980 16613
L67208 16841
" />
<path d="M67208 16613
L66980 16841
" />
<path d="M66980 34354
L67208 34582
" />
<path d="M67208 34354
L66980 34582
" />
<path d="M67704 33630
L67932 33858
" />
<path d="M67932 33630
L67704 33858
" />
<path d="M68066 18785
L68294 19013
" />
<path d="M68294 18785
L68066 19013
" />
<path d="M68428 32906
L68656 33134
" />
<path d="M68656 32906
L68428 33134
" />
<path d="M68501 39133
L68729 39361
" />
<path d="M68729 39133
L68501 39361
" />
<path d="M68646 37106
L68874 37334
" />
<path d="M68874 37106
L68646 37334
" />
<path d="M68790 18423
L69018 18651
" />
<path d="M69018 18423
L68790 18651
" />
<path d="M69659 35947
L69887 36175
" />
<path d="M69887 35947
L69659 36175
" />
<path d="M70324 22979
L70552 23207
" />
<path d="M70552 22979
L70324 23207
" />
<path d="M70963 32672
L71191 32900
" />
<path d="M71191 32672
L70963 32900
" />
<path d="M71325 45216
L71553 45444
" />
<path d="M71553 45216
L71325 45444
" />
<path d="M72266 44130
L72494 44358
" />
<path d="M72494 44130
L72266 44358
" />
<path d="M74315 43505
L74543 43733
" />
<path d="M74543 43505
L74315 43733
" />
<path d="M78552 38815
L78780 39043
" />
<path d="M78780 38815
L78552 39043
" />
<path d="M78566 28199
L78794 28427
" />
<path d="M78794 28199
L78566 28427
" />
<path d="M78566 33992
L78794 34220
" />
<path d="M78794 33992
L78566 34220
" />
<path d="M80587 2453
L80815 2681
" />
<path d="M80815 2453
L80587 2681
" />
</g>
<g style="fill:#000000; fill-opacity:0.0; 
stroke:#000000; stroke-width:43.447311; stroke-opacity:1; 
stroke-linecap:round; stroke-linejoin:round;">
<circle cx="52612.156746" cy="31985.350345" r="217.236554" /> 
<circle cx="52612.156746" cy="42020.424769" r="217.236554" /> 
<circle cx="54060.400441" cy="31985.350345" r="217.236554" /> 
<circle cx="54060.400441" cy="42020.424769" r="217.236554" /> 
<circle cx="55508.644137" cy="31985.350345" r="217.236554" /> 
<circle cx="55508.644137" cy="42020.424769" r="217.236554" /> 
<circle cx="56956.887832" cy="31985.350345" r="217.236554" /> 
<circle cx="56956.887832" cy="42020.424769" r="217.236554" /> 
<circle cx="58405.131528" cy="31985.350345" r="217.236554" /> 
<circle cx="58405.131528" cy="42020.424769" r="217.236554" /> 
<circle cx="59853.375223" cy="31985.350345" r="217.236554" /> 
<circle cx="59853.375223" cy="42020.424769" r="217.236554" /> 
<circle cx="61301.618918" cy="31985.350345" r="217.236554" /> 
<circle cx="61301.618918" cy="42020.424769" r="217.236554" /> 
<circle cx="62749.862614" cy="31985.350345" r="217.236554" /> 
<circle cx="62749.862614" cy="42020.424769" r="217.236554" /> 
<circle cx="64198.106309" cy="31985.350345" r="217.236554" /> 
<circle cx="64198.106309" cy="42020.424769" r="217.236554" /> 
<circle cx="65646.350004" cy="31985.350345" r="217.236554" /> 
<circle cx="65646.350004" cy="42020.424769" r="217.236554" /> 
<circle cx="67094.593700" cy="31985.350345" r="217.236554" /> 
<circle cx="67094.593700" cy="42020.424769" r="217.236554" /> 
<circle cx="68542.837395" cy="31985.350345" r="217.236554" /> 
<circle cx="68542.837395" cy="42020.424769" r="217.236554" /> 
</g>
<g style="fill:#000000; fill-opacity:0.0; 
stroke:#000000; stroke-width:45.613975; stroke-opacity:1; 
stroke-linecap:round; stroke-linejoin:round;">
<path d="M49715 3682
L49715 4138
" />
<path d="M49487 3910
L49943 3910
" />
<path d="M49715 9475
L49715 9931
" />
<path d="M49487 9703
L49943 9703
" />
<path d="M51888 3682
L51888 4138
" />
<path d="M51659 3910
L52116 3910
" />
<path d="M51888 9475
L51888 9931
" />
<path d="M51659 9703
L52116 9703
" />
<path d="M58767 19757
L58767 20214
" />
<path d="M58539 19986
L58995 19986
" />
<path d="M58767 25550
L58767 26007
" />
<path d="M58539 25778
L58995 25778
" />
<path d="M71801 23378
L71801 23834
" />
<path d="M71573 23606
L72029 23606
" />
<path d="M71801 25550
L71801 26007
" />
<path d="M71573 25778
L72029 25778
" />
<path d="M77594 23378
L77594 23834
" />
<path d="M77366 23606
L77822 23606
" />
<path d="M77594 25550
L77594 26007
" />
<path d="M77366 25778
L77822 25778
" />
<path d="M79766 23378
L79766 23834
" />
<path d="M79538 23606
L79994 23606
" />
<path d="M79766 25550
L79766 26007
" />
<path d="M79538 25778
L79994 25778
" />
<path d="M85559 23378
L85559 23834
" />
<path d="M85331 23606
L85787 23606
" />
<path d="M85559 25550
L85559 26007
" />
<path d="M85331 25778
L85787 25778
" />
</g>
<g style="fill:#000000; fill-opacity:0.0; 
stroke:#000000; stroke-width:57.017468; stroke-opacity:1; 
stroke-linecap:round; stroke-linejoin:round;">
<path style="fill:#000000; fill-opacity:0.0; 
stroke:#000000; stroke-width:57.017468; stroke-opacity:1; 
stroke-linecap:round; stroke-linejoin:round;fill:none"
d="M 32465.922076,9036.136932
32465.922076,8632.958431
32062.743575,8632.958431
32062.743575,9036.136932
Z" /> 
<path style="fill:#000000; fill-opacity:0.0; 
stroke:#000000; stroke-width:57.017468; stroke-opacity:1; 
stroke-linecap:round; stroke-linejoin:round;fill:none"
d="M 33624.517033,14032.577681
33624.517033,13629.399180
33221.338532,13629.399180
33221.338532,14032.577681
Z" /> 
<path style="fill:#000000; fill-opacity:0.0; 
stroke:#000000; stroke-width:57.017468; stroke-opacity:1; 
stroke-linecap:round; stroke-linejoin:round;fill:none"
d="M 33624.517033,15480.821377
33624.517033,15077.642876
33221.338532,15077.642876
33221.338532,15480.821377
Z" /> 
<path style="fill:#000000; fill-opacity:0.0; 
stroke:#000000; stroke-width:57.017468; stroke-opacity:1; 
stroke-linecap:round; stroke-linejoin:round;fill:none"
d="M 33624.517033,16929.065072
33624.517033,16525.886571
33221.338532,16525.886571
33221.338532,16929.065072
Z" /> 
<path style="fill:#000000; fill-opacity:0.0; 
stroke:#000000; stroke-width:57.017468; stroke-opacity:1; 
stroke-linecap:round; stroke-linejoin:round;fill:none"
d="M 33624.517033,18377.308768
33624.517033,17974.130267
33221.338532,17974.130267
33221.338532,18377.308768
Z" /> 
<path style="fill:#000000; fill-opacity:0.0; 
stroke:#000000; stroke-width:57.017468; stroke-opacity:1; 
stroke-linecap:round; stroke-linejoin:round;fill:none"
d="M 33624.517033,19825.552463
33624.517033,19422.373962
33221.338532,19422.373962
33221.338532,19825.552463
Z" /> 
<path style="fill:#000000; fill-opacity:0.0; 
stroke:#000000; stroke-width:57.017468; stroke-opacity:1; 
stroke-linecap:round; stroke-linejoin:round;fill:none"
d="M 33624.517033,21273.796158
33624.517033,20870.617657
33221.338532,20870.617657
33221.338532,21273.796158
Z" /> 
<path style="fill:#000000; fill-opacity:0.0; 
stroke:#000000; stroke-width:57.017468; stroke-opacity:1; 
stroke-linecap:round; stroke-linejoin:round;fill:none"
d="M 33624.517033,22722.039854
33624.517033,22318.861353
33221.338532,22318.861353
33221.338532,22722.039854
Z" /> 
<path style="fill:#000000; fill-opacity:0.0; 
stroke:#000000; stroke-width:57.017468; stroke-opacity:1; 
stroke-linecap:round; stroke-linejoin:round;fill:none"
d="M 33624.517033,24170.283549
33624.517033,23767.105048
33221.338532,23767.105048
33221.338532,24170.283549
Z" /> 
<path style="fill:#000000; fill-opacity:0.0; 
stroke:#000000; stroke-width:57.017468; stroke-opacity:1; 
stroke-linecap:round; stroke-linejoin:round;fill:none"
d="M 33624.517033,25618.527244
33624.517033,25215.348743
33221.338532,25215.348743
33221.338532,25618.527244
Z" /> 
<path style="fill:#000000; fill-opacity:0.0; 
stroke:#000000; stroke-width:57.017468; stroke-opacity:1; 
stroke-linecap:round; stroke-linejoin:round;fill:none"
d="M 33624.517033,27066.770940
33624.517033,26663.592439
33221.338532,26663.592439
33221.338532,27066.770940
Z" /> 
<path style="fill:#000000; fill-opacity:0.0; 
stroke:#000000; stroke-width:57.017468; stroke-opacity:1; 
stroke-linecap:round; stroke-linejoin:round;fill:none"
d="M 33624.517033,28515.014635
33624.517033,28111.836134
33221.338532,28111.836134
33221.338532,28515.014635
Z" /> 
<path style="fill:#000000; fill-opacity:0.0; 
stroke:#000000; stroke-width:57.017468; stroke-opacity:1; 
stroke-linecap:round; stroke-linejoin:round;fill:none"
d="M 33624.517033,29963.258331
33624.517033,29560.079830
33221.338532,29560.079830
33221.338532,29963.258331
Z" /> 
<path style="fill:#000000; fill-opacity:0.0; 
stroke:#000000; stroke-width:57.017468; stroke-opacity:1; 
stroke-linecap:round; stroke-linejoin:round;fill:none"
d="M 33624.517033,31411.502026
33624.517033,31008.323525
33221.338532,31008.323525
33221.338532,31411.502026
Z" /> 
<path style="fill:#000000; fill-opacity:0.0; 
stroke:#000000; stroke-width:57.017468; stroke-opacity:1; 
stroke-linecap:round; stroke-linejoin:round;fill:none"
d="M 33624.517033,32859.745721
33624.517033,32456.567220
33221.338532,32456.567220
33221.338532,32859.745721
Z" /> 
<path style="fill:#000000; fill-opacity:0.0; 
stroke:#000000; stroke-width:57.017468; stroke-opacity:1; 
stroke-linecap:round; stroke-linejoin:round;fill:none"
d="M 33624.517033,34307.989417
33624.517033,33904.810916
33221.338532,33904.810916
33221.338532,34307.989417
Z" /> 
<path style="fill:#000000; fill-opacity:0.0; 
stroke:#000000; stroke-width:57.017468; stroke-opacity:1; 
stroke-linecap:round; stroke-linejoin:round;fill:none"
d="M 33914.165772,9036.136932
33914.165772,8632.958431
33510.987271,8632.958431
33510.987271,9036.136932
Z" /> 
<path style="fill:#000000; fill-opacity:0.0; 
stroke:#000000; stroke-width:57.017468; stroke-opacity:1; 
stroke-linecap:round; stroke-linejoin:round;fill:none"
d="M 41951.918281,39162.456670
41951.918281,38759.278169
41548.739780,38759.278169
41548.739780,39162.456670
Z" /> 
<path style="fill:#000000; fill-opacity:0.0; 
stroke:#000000; stroke-width:57.017468; stroke-opacity:1; 
stroke-linecap:round; stroke-linejoin:round;fill:none"
d="M 41951.918281,40610.700365
41951.918281,40207.521864
41548.739780,40207.521864
41548.739780,40610.700365
Z" /> 
<path style="fill:#000000; fill-opacity:0.0; 
stroke:#000000; stroke-width:57.017468; stroke-opacity:1; 
stroke-linecap:round; stroke-linejoin:round;fill:none"
d="M 41951.918281,43718.722563
41951.918281,43315.544062
41548.739780,43315.544062
41548.739780,43718.722563
Z" /> 
<path style="fill:#000000; fill-opacity:0.0; 
stroke:#000000; stroke-width:57.017468; stroke-opacity:1; 
stroke-linecap:round; stroke-linejoin:round;fill:none"
d="M 41951.918281,45166.966259
41951.918281,44763.787758
41548.739780,44763.787758
41548.739780,45166.966259
Z" /> 
<path style="fill:#000000; fill-opacity:0.0; 
stroke:#000000; stroke-width:57.017468; stroke-opacity:1; 
stroke-linecap:round; stroke-linejoin:round;fill:none"
d="M 42313.979205,14032.577681
42313.979205,13629.399180
41910.800704,13629.399180
41910.800704,14032.577681
Z" /> 
<path style="fill:#000000; fill-opacity:0.0; 
stroke:#000000; stroke-width:57.017468; stroke-opacity:1; 
stroke-linecap:round; stroke-linejoin:round;fill:none"
d="M 42313.979205,15480.821377
42313.979205,15077.642876
41910.800704,15077.642876
41910.800704,15480.821377
Z" /> 
<path style="fill:#000000; fill-opacity:0.0; 
stroke:#000000; stroke-width:57.017468; stroke-opacity:1; 
stroke-linecap:round; stroke-linejoin:round;fill:none"
d="M 42313.979205,16929.065072
42313.979205,16525.886571
41910.800704,16525.886571
41910.800704,16929.065072
Z" /> 
<path style="fill:#000000; fill-opacity:0.0; 
stroke:#000000; stroke-width:57.017468; stroke-opacity:1; 
stroke-linecap:round; stroke-linejoin:round;fill:none"
d="M 42313.979205,18377.308768
42313.979205,17974.130267
41910.800704,17974.130267
41910.800704,18377.308768
Z" /> 
<path style="fill:#000000; fill-opacity:0.0; 
stroke:#000000; stroke-width:57.017468; stroke-opacity:1; 
stroke-linecap:round; stroke-linejoin:round;fill:none"
d="M 42313.979205,19825.552463
42313.979205,19422.373962
41910.800704,19422.373962
41910.800704,19825.552463
Z" /> 
<path style="fill:#000000; fill-opacity:0.0; 
stroke:#000000; stroke-width:57.017468; stroke-opacity:1; 
stroke-linecap:round; stroke-linejoin:round;fill:none"
d="M 42313.979205,21273.796158
42313.979205,20870.617657
41910.800704,20870.617657
41910.800704,21273.796158
Z" /> 
<path style="fill:#000000; fill-opacity:0.0; 
stroke:#000000; stroke-width:57.017468; stroke-opacity:1; 
stroke-linecap:round; stroke-linejoin:round;fill:none"
d="M 42313.979205,22722.039854
42313.979205,22318.861353
41910.800704,22318.861353
41910.800704,22722.039854
Z" /> 
<path style="fill:#000000; fill-opacity:0.0; 
stroke:#000000; stroke-width:57.017468; stroke-opacity:1; 
stroke-linecap:round; stroke-linejoin:round;fill:none"
d="M 42313.979205,24170.283549
42313.979205,23767.105048
41910.800704,23767.105048
41910.800704,24170.283549
Z" /> 
<path style="fill:#000000; fill-opacity:0.0; 
stroke:#000000; stroke-width:57.017468; stroke-opacity:1; 
stroke-linecap:round; stroke-linejoin:round;fill:none"
d="M 42313.979205,25618.527244
42313.979205,25215.348743
41910.800704,25215.348743
41910.800704,25618.527244
Z" /> 
<path style="fill:#000000; fill-opacity:0.0; 
stroke:#000000; stroke-width:57.017468; stroke-opacity:1; 
stroke-linecap:round; stroke-linejoin:round;fill:none"
d="M 42313.979205,27066.770940
42313.979205,26663.592439
41910.800704,26663.592439
41910.800704,27066.770940
Z" /> 
<path style="fill:#000000; fill-opacity:0.0; 
stroke:#000000; stroke-width:57.017468; stroke-opacity:1; 
stroke-linecap:round; stroke-linejoin:round;fill:none"
d="M 42313.979205,28515.014635
42313.979205,28111.836134
41910.800704,28111.836134
41910.800704,28515.014635
Z" /> 
<path style="fill:#000000; fill-opacity:0.0; 
stroke:#000000; stroke-width:57.017468; stroke-opacity:1; 
stroke-linecap:round; stroke-linejoin:round;fill:none"
d="M 42313.979205,29963.258331
42313.979205,29560.079830
41910.800704,29560.079830
41910.800704,29963.258331
Z" /> 
<path style="fill:#000000; fill-opacity:0.0; 
stroke:#000000; stroke-width:57.017468; stroke-opacity:1; 
stroke-linecap:round; stroke-linejoin:round;fill:none"
d="M 42313.979205,31411.502026
42313.979205,31008.323525
41910.800704,31008.323525
41910.800704,31411.502026
Z" /> 
<path style="fill:#000000; fill-opacity:0.0; 
stroke:#000000; stroke-width:57.017468; stroke-opacity:1; 
stroke-linecap:round; stroke-linejoin:round;fill:none"
d="M 42313.979205,32859.745721
42313.979205,32456.567220
41910.800704,32456.567220
41910.800704,32859.745721
Z" /> 
<path style="fill:#000000; fill-opacity:0.0; 
stroke:#000000; stroke-width:57.017468; stroke-opacity:1; 
stroke-linecap:round; stroke-linejoin:round;fill:none"
d="M 42313.979205,34307.989417
42313.979205,33904.810916
41910.800704,33904.810916
41910.800704,34307.989417
Z" /> 
<path style="fill:#000000; fill-opacity:0.0; 
stroke:#000000; stroke-width:57.017468; stroke-opacity:1; 
stroke-linecap:round; stroke-linejoin:round;fill:none"
d="M 43400.161977,39162.456670
43400.161977,38759.278169
42996.983476,38759.278169
42996.983476,39162.456670
Z" /> 
<path style="fill:#000000; fill-opacity:0.0; 
stroke:#000000; stroke-width:57.017468; stroke-opacity:1; 
stroke-linecap:round; stroke-linejoin:round;fill:none"
d="M 43400.161977,40610.700365
43400.161977,40207.521864
42996.983476,40207.521864
42996.983476,40610.700365
Z" /> 
<path style="fill:#000000; fill-opacity:0.0; 
stroke:#000000; stroke-width:57.017468; stroke-opacity:1; 
stroke-linecap:round; stroke-linejoin:round;fill:none"
d="M 44848.405672,39162.456670
44848.405672,38759.278169
44445.227171,38759.278169
44445.227171,39162.456670
Z" /> 
<path style="fill:#000000; fill-opacity:0.0; 
stroke:#000000; stroke-width:57.017468; stroke-opacity:1; 
stroke-linecap:round; stroke-linejoin:round;fill:none"
d="M 44848.405672,40610.700365
44848.405672,40207.521864
44445.227171,40207.521864
44445.227171,40610.700365
Z" /> 
<path style="fill:#000000; fill-opacity:0.0; 
stroke:#000000; stroke-width:57.017468; stroke-opacity:1; 
stroke-linecap:round; stroke-linejoin:round;fill:none"
d="M 46122.746089,45531.878056
46122.746089,45128.699555
45719.567588,45128.699555
45719.567588,45531.878056
Z" /> 
<path style="fill:#000000; fill-opacity:0.0; 
stroke:#000000; stroke-width:57.017468; stroke-opacity:1; 
stroke-linecap:round; stroke-linejoin:round;fill:none"
d="M 46296.649367,39162.456670
46296.649367,38759.278169
45893.470866,38759.278169
45893.470866,39162.456670
Z" /> 
<path style="fill:#000000; fill-opacity:0.0; 
stroke:#000000; stroke-width:57.017468; stroke-opacity:1; 
stroke-linecap:round; stroke-linejoin:round;fill:none"
d="M 46296.649367,40610.700365
46296.649367,40207.521864
45893.470866,40207.521864
45893.470866,40610.700365
Z" /> 
<path style="fill:#000000; fill-opacity:0.0; 
stroke:#000000; stroke-width:57.017468; stroke-opacity:1; 
stroke-linecap:round; stroke-linejoin:round;fill:none"
d="M 47570.989784,45531.878056
47570.989784,45128.699555
47167.811283,45128.699555
47167.811283,45531.878056
Z" /> 
<path style="fill:#000000; fill-opacity:0.0; 
stroke:#000000; stroke-width:57.017468; stroke-opacity:1; 
stroke-linecap:round; stroke-linejoin:round;fill:none"
d="M 48831.075834,39014.781427
48831.075834,38611.602926
48427.897333,38611.602926
48427.897333,39014.781427
Z" /> 
<path style="fill:#000000; fill-opacity:0.0; 
stroke:#000000; stroke-width:57.017468; stroke-opacity:1; 
stroke-linecap:round; stroke-linejoin:round;fill:none"
d="M 48831.075834,41911.268817
48831.075834,41508.090316
48427.897333,41508.090316
48427.897333,41911.268817
Z" /> 
<path style="fill:#000000; fill-opacity:0.0; 
stroke:#000000; stroke-width:57.017468; stroke-opacity:1; 
stroke-linecap:round; stroke-linejoin:round;fill:none"
d="M 49019.233480,45531.878056
49019.233480,45128.699555
48616.054979,45128.699555
48616.054979,45531.878056
Z" /> 
<path style="fill:#000000; fill-opacity:0.0; 
stroke:#000000; stroke-width:57.017468; stroke-opacity:1; 
stroke-linecap:round; stroke-linejoin:round;fill:none"
d="M 50467.477175,45531.878056
50467.477175,45128.699555
50064.298674,45128.699555
50064.298674,45531.878056
Z" /> 
<path style="fill:#000000; fill-opacity:0.0; 
stroke:#000000; stroke-width:57.017468; stroke-opacity:1; 
stroke-linecap:round; stroke-linejoin:round;fill:none"
d="M 51727.563225,17110.095534
51727.563225,16706.917033
51324.384724,16706.917033
51324.384724,17110.095534
Z" /> 
<path style="fill:#000000; fill-opacity:0.0; 
stroke:#000000; stroke-width:57.017468; stroke-opacity:1; 
stroke-linecap:round; stroke-linejoin:round;fill:none"
d="M 51727.563225,18558.339229
51727.563225,18155.160728
51324.384724,18155.160728
51324.384724,18558.339229
Z" /> 
<path style="fill:#000000; fill-opacity:0.0; 
stroke:#000000; stroke-width:57.017468; stroke-opacity:1; 
stroke-linecap:round; stroke-linejoin:round;fill:none"
d="M 51727.563225,20006.582925
51727.563225,19603.404424
51324.384724,19603.404424
51324.384724,20006.582925
Z" /> 
<path style="fill:#000000; fill-opacity:0.0; 
stroke:#000000; stroke-width:57.017468; stroke-opacity:1; 
stroke-linecap:round; stroke-linejoin:round;fill:none"
d="M 51727.563225,21454.826620
51727.563225,21051.648119
51324.384724,21051.648119
51324.384724,21454.826620
Z" /> 
<path style="fill:#000000; fill-opacity:0.0; 
stroke:#000000; stroke-width:57.017468; stroke-opacity:1; 
stroke-linecap:round; stroke-linejoin:round;fill:none"
d="M 52802.342503,27825.103268
52802.342503,27421.924768
52399.164002,27421.924768
52399.164002,27825.103268
Z" /> 
<path style="fill:#000000; fill-opacity:0.0; 
stroke:#000000; stroke-width:57.017468; stroke-opacity:1; 
stroke-linecap:round; stroke-linejoin:round;fill:none"
d="M 52802.342503,29273.346964
52802.342503,28870.168463
52399.164002,28870.168463
52399.164002,29273.346964
Z" /> 
<path style="fill:#000000; fill-opacity:0.0; 
stroke:#000000; stroke-width:57.017468; stroke-opacity:1; 
stroke-linecap:round; stroke-linejoin:round;fill:none"
d="M 52813.745996,45531.878056
52813.745996,45128.699555
52410.567496,45128.699555
52410.567496,45531.878056
Z" /> 
<path style="fill:#000000; fill-opacity:0.0; 
stroke:#000000; stroke-width:57.017468; stroke-opacity:1; 
stroke-linecap:round; stroke-linejoin:round;fill:none"
d="M 54261.989692,45531.878056
54261.989692,45128.699555
53858.811191,45128.699555
53858.811191,45531.878056
Z" /> 
<path style="fill:#000000; fill-opacity:0.0; 
stroke:#000000; stroke-width:57.017468; stroke-opacity:1; 
stroke-linecap:round; stroke-linejoin:round;fill:none"
d="M 54986.111540,27819.857661
54986.111540,27416.679160
54582.933039,27416.679160
54582.933039,27819.857661
Z" /> 
<path style="fill:#000000; fill-opacity:0.0; 
stroke:#000000; stroke-width:57.017468; stroke-opacity:1; 
stroke-linecap:round; stroke-linejoin:round;fill:none"
d="M 54986.111540,29268.101357
54986.111540,28864.922856
54582.933039,28864.922856
54582.933039,29268.101357
Z" /> 
<path style="fill:#000000; fill-opacity:0.0; 
stroke:#000000; stroke-width:57.017468; stroke-opacity:1; 
stroke-linecap:round; stroke-linejoin:round;fill:none"
d="M 56072.294311,17110.095534
56072.294311,16706.917033
55669.115810,16706.917033
55669.115810,17110.095534
Z" /> 
<path style="fill:#000000; fill-opacity:0.0; 
stroke:#000000; stroke-width:57.017468; stroke-opacity:1; 
stroke-linecap:round; stroke-linejoin:round;fill:none"
d="M 56072.294311,18558.339229
56072.294311,18155.160728
55669.115810,18155.160728
55669.115810,18558.339229
Z" /> 
<path style="fill:#000000; fill-opacity:0.0; 
stroke:#000000; stroke-width:57.017468; stroke-opacity:1; 
stroke-linecap:round; stroke-linejoin:round;fill:none"
d="M 56072.294311,20006.582925
56072.294311,19603.404424
55669.115810,19603.404424
55669.115810,20006.582925
Z" /> 
<path style="fill:#000000; fill-opacity:0.0; 
stroke:#000000; stroke-width:57.017468; stroke-opacity:1; 
stroke-linecap:round; stroke-linejoin:round;fill:none"
d="M 56072.294311,21454.826620
56072.294311,21051.648119
55669.115810,21051.648119
55669.115810,21454.826620
Z" /> 
<path style="fill:#000000; fill-opacity:0.0; 
stroke:#000000; stroke-width:57.017468; stroke-opacity:1; 
stroke-linecap:round; stroke-linejoin:round;fill:none"
d="M 56431.504362,45531.878056
56431.504362,45128.699555
56028.325861,45128.699555
56028.325861,45531.878056
Z" /> 
<path style="fill:#000000; fill-opacity:0.0; 
stroke:#000000; stroke-width:57.017468; stroke-opacity:1; 
stroke-linecap:round; stroke-linejoin:round;fill:none"
d="M 57879.748057,45531.878056
57879.748057,45128.699555
57476.569556,45128.699555
57476.569556,45531.878056
Z" /> 
<path style="fill:#000000; fill-opacity:0.0; 
stroke:#000000; stroke-width:57.017468; stroke-opacity:1; 
stroke-linecap:round; stroke-linejoin:round;fill:none"
d="M 60052.113600,45531.878056
60052.113600,45128.699555
59648.935099,45128.699555
59648.935099,45531.878056
Z" /> 
<path style="fill:#000000; fill-opacity:0.0; 
stroke:#000000; stroke-width:57.017468; stroke-opacity:1; 
stroke-linecap:round; stroke-linejoin:round;fill:none"
d="M 61500.357295,45531.878056
61500.357295,45128.699555
61097.178794,45128.699555
61097.178794,45531.878056
Z" /> 
<path style="fill:#000000; fill-opacity:0.0; 
stroke:#000000; stroke-width:57.017468; stroke-opacity:1; 
stroke-linecap:round; stroke-linejoin:round;fill:none"
d="M 63307.811041,24348.463138
63307.811041,23945.284637
62904.632540,23945.284637
62904.632540,24348.463138
Z" /> 
<path style="fill:#000000; fill-opacity:0.0; 
stroke:#000000; stroke-width:57.017468; stroke-opacity:1; 
stroke-linecap:round; stroke-linejoin:round;fill:none"
d="M 63319.214535,29239.136483
63319.214535,28835.957982
62916.036034,28835.957982
62916.036034,29239.136483
Z" /> 
<path style="fill:#000000; fill-opacity:0.0; 
stroke:#000000; stroke-width:57.017468; stroke-opacity:1; 
stroke-linecap:round; stroke-linejoin:round;fill:none"
d="M 63675.573712,45531.878056
63675.573712,45128.699555
63272.395211,45128.699555
63272.395211,45531.878056
Z" /> 
<path style="fill:#000000; fill-opacity:0.0; 
stroke:#000000; stroke-width:57.017468; stroke-opacity:1; 
stroke-linecap:round; stroke-linejoin:round;fill:none"
d="M 64756.054737,24348.463138
64756.054737,23945.284637
64352.876236,23945.284637
64352.876236,24348.463138
Z" /> 
<path style="fill:#000000; fill-opacity:0.0; 
stroke:#000000; stroke-width:57.017468; stroke-opacity:1; 
stroke-linecap:round; stroke-linejoin:round;fill:none"
d="M 64767.458230,29239.136483
64767.458230,28835.957982
64364.279729,28835.957982
64364.279729,29239.136483
Z" /> 
<path style="fill:#000000; fill-opacity:0.0; 
stroke:#000000; stroke-width:57.017468; stroke-opacity:1; 
stroke-linecap:round; stroke-linejoin:round;fill:none"
d="M 65123.817407,45531.878056
65123.817407,45128.699555
64720.638906,45128.699555
64720.638906,45531.878056
Z" /> 
<path style="fill:#000000; fill-opacity:0.0; 
stroke:#000000; stroke-width:57.017468; stroke-opacity:1; 
stroke-linecap:round; stroke-linejoin:round;fill:none"
d="M 66204.298432,24348.463138
66204.298432,23945.284637
65801.119931,23945.284637
65801.119931,24348.463138
Z" /> 
<path style="fill:#000000; fill-opacity:0.0; 
stroke:#000000; stroke-width:57.017468; stroke-opacity:1; 
stroke-linecap:round; stroke-linejoin:round;fill:none"
d="M 66215.701926,29239.136483
66215.701926,28835.957982
65812.523425,28835.957982
65812.523425,29239.136483
Z" /> 
<path style="fill:#000000; fill-opacity:0.0; 
stroke:#000000; stroke-width:57.017468; stroke-opacity:1; 
stroke-linecap:round; stroke-linejoin:round;fill:none"
d="M 67293.332077,45531.878056
67293.332077,45128.699555
66890.153576,45128.699555
66890.153576,45531.878056
Z" /> 
<path style="fill:#000000; fill-opacity:0.0; 
stroke:#000000; stroke-width:57.017468; stroke-opacity:1; 
stroke-linecap:round; stroke-linejoin:round;fill:none"
d="M 67652.542127,24348.463138
67652.542127,23945.284637
67249.363626,23945.284637
67249.363626,24348.463138
Z" /> 
<path style="fill:#000000; fill-opacity:0.0; 
stroke:#000000; stroke-width:57.017468; stroke-opacity:1; 
stroke-linecap:round; stroke-linejoin:round;fill:none"
d="M 67663.945621,29239.136483
67663.945621,28835.957982
67260.767120,28835.957982
67260.767120,29239.136483
Z" /> 
<path style="fill:#000000; fill-opacity:0.0; 
stroke:#000000; stroke-width:57.017468; stroke-opacity:1; 
stroke-linecap:round; stroke-linejoin:round;fill:none"
d="M 68741.575772,45531.878056
68741.575772,45128.699555
68338.397271,45128.699555
68338.397271,45531.878056
Z" /> 
<path style="fill:#000000; fill-opacity:0.0; 
stroke:#000000; stroke-width:57.017468; stroke-opacity:1; 
stroke-linecap:round; stroke-linejoin:round;fill:none"
d="M 77216.652264,20911.735234
77216.652264,20508.556733
76813.473763,20508.556733
76813.473763,20911.735234
Z" /> 
<path style="fill:#000000; fill-opacity:0.0; 
stroke:#000000; stroke-width:57.017468; stroke-opacity:1; 
stroke-linecap:round; stroke-linejoin:round;fill:none"
d="M 80113.139654,20911.735234
80113.139654,20508.556733
79709.961153,20508.556733
79709.961153,20911.735234
Z" /> 
<path style="fill:#000000; fill-opacity:0.0; 
stroke:#000000; stroke-width:57.017468; stroke-opacity:1; 
stroke-linecap:round; stroke-linejoin:round;fill:none"
d="M 82864.802676,8863.944178
82864.802676,8460.765677
82461.624175,8460.765677
82461.624175,8863.944178
Z" /> 
<path style="fill:#000000; fill-opacity:0.0; 
stroke:#000000; stroke-width:57.017468; stroke-opacity:1; 
stroke-linecap:round; stroke-linejoin:round;fill:none"
d="M 82864.802676,11891.571746
82864.802676,11488.393245
82461.624175,11488.393245
82461.624175,11891.571746
Z" /> 
<path style="fill:#000000; fill-opacity:0.0; 
stroke:#000000; stroke-width:57.017468; stroke-opacity:1; 
stroke-linecap:round; stroke-linejoin:round;fill:none"
d="M 82864.802676,15842.882301
82864.802676,15439.703800
82461.624175,15439.703800
82461.624175,15842.882301
Z" /> 
<path style="fill:#000000; fill-opacity:0.0; 
stroke:#000000; stroke-width:57.017468; stroke-opacity:1; 
stroke-linecap:round; stroke-linejoin:round;fill:none"
d="M 82876.206169,20911.735234
82876.206169,20508.556733
82473.027668,20508.556733
82473.027668,20911.735234
Z" /> 
<path style="fill:#000000; fill-opacity:0.0; 
stroke:#000000; stroke-width:57.017468; stroke-opacity:1; 
stroke-linecap:round; stroke-linejoin:round;fill:none"
d="M 85761.290066,8863.944178
85761.290066,8460.765677
85358.111565,8460.765677
85358.111565,8863.944178
Z" /> 
<path style="fill:#000000; fill-opacity:0.0; 
stroke:#000000; stroke-width:57.017468; stroke-opacity:1; 
stroke-linecap:round; stroke-linejoin:round;fill:none"
d="M 85761.290066,11891.571746
85761.290066,11488.393245
85358.111565,11488.393245
85358.111565,11891.571746
Z" /> 
<path style="fill:#000000; fill-opacity:0.0; 
stroke:#000000; stroke-width:57.017468; stroke-opacity:1; 
stroke-linecap:round; stroke-linejoin:round;fill:none"
d="M 85761.290066,15842.882301
85761.290066,15439.703800
85358.111565,15439.703800
85358.111565,15842.882301
Z" /> 
<path style="fill:#000000; fill-opacity:0.0; 
stroke:#000000; stroke-width:57.017468; stroke-opacity:1; 
stroke-linecap:round; stroke-linejoin:round;fill:none"
d="M 85772.693560,20911.735234
85772.693560,20508.556733
85369.515059,20508.556733
85369.515059,20911.735234
Z" /> 
</g>
<g style="fill:#000000; fill-opacity:0.0; 
stroke:#000000; stroke-width:58.157818; stroke-opacity:1; 
stroke-linecap:round; stroke-linejoin:round;">
<path style="fill:#000000; fill-opacity:0.0; 
stroke:#000000; stroke-width:58.157818; stroke-opacity:1; 
stroke-linecap:round; stroke-linejoin:round;fill:none"
d="M 62196.793171,17386.027581
62487.582259,17095.238492
62196.793171,16804.449404
61906.004083,17095.238492
Z" /> 
<path style="fill:#000000; fill-opacity:0.0; 
stroke:#000000; stroke-width:58.157818; stroke-opacity:1; 
stroke-linecap:round; stroke-linejoin:round;fill:none"
d="M 62196.793171,18834.271276
62487.582259,18543.482188
62196.793171,18252.693099
61906.004083,18543.482188
Z" /> 
<path style="fill:#000000; fill-opacity:0.0; 
stroke:#000000; stroke-width:58.157818; stroke-opacity:1; 
stroke-linecap:round; stroke-linejoin:round;fill:none"
d="M 62196.793171,20282.514972
62487.582259,19991.725883
62196.793171,19700.936795
61906.004083,19991.725883
Z" /> 
<path style="fill:#000000; fill-opacity:0.0; 
stroke:#000000; stroke-width:58.157818; stroke-opacity:1; 
stroke-linecap:round; stroke-linejoin:round;fill:none"
d="M 62196.793171,21730.758667
62487.582259,21439.969578
62196.793171,21149.180490
61906.004083,21439.969578
Z" /> 
</g>
<g style="fill:#000000; fill-opacity:0.0; 
stroke:#000000; stroke-width:62.719215; stroke-opacity:1; 
stroke-linecap:round; stroke-linejoin:round;">
<path d="M47437 4943
L48065 5570
" />
<path d="M48065 4943
L47437 5570
" />
<circle cx="47751.417572" cy="5257.385754" r="313.596076" /> 
<path d="M47437 6392
L48065 7019
" />
<path d="M48065 6392
L47437 7019
" />
<circle cx="47751.417572" cy="6705.629450" r="313.596076" /> 
<path d="M47437 7840
L48065 8467
" />
<path d="M48065 7840
L47437 8467
" />
<circle cx="47751.417572" cy="8153.873145" r="313.596076" /> 
<path d="M72936 27516
L73563 28143
" />
<path d="M73563 27516
L72936 28143
" />
<circle cx="73249.629405" cy="27829.917253" r="313.596076" /> 
<path d="M74384 27516
L75011 28143
" />
<path d="M75011 27516
L74384 28143
" />
<circle cx="74697.873101" cy="27829.917253" r="313.596076" /> 
<path d="M75832 27516
L76459 28143
" />
<path d="M76459 27516
L75832 28143
" />
<circle cx="76146.116796" cy="27829.917253" r="313.596076" /> 
<path d="M80901 27516
L81528 28143
" />
<path d="M81528 27516
L80901 28143
" />
<circle cx="81214.969730" cy="27829.917253" r="313.596076" /> 
<path d="M82349 27516
L82976 28143
" />
<path d="M82976 27516
L82349 28143
" />
<circle cx="82663.213425" cy="27829.917253" r="313.596076" /> 
<path d="M83797 27516
L84425 28143
" />
<path d="M84425 27516
L83797 28143
" />
<circle cx="84111.457121" cy="27829.917253" r="313.596076" /> 
</g>
<g style="fill:#000000; fill-opacity:0.0; 
stroke:#000000; stroke-width:85.526202; stroke-opacity:1; 
stroke-linecap:round; stroke-linejoin:round;">
<path d="M55768 3808
L56624 4664
" />
<path d="M56624 3808
L55768 4664
" />
<path d="M56196 3808
L56196 4664
" />
<path d="M55768 4236
L56624 4236
" />
<path d="M55768 13584
L56624 14439
" />
<path d="M56624 13584
L55768 14439
" />
<path d="M56196 13584
L56196 14439
" />
<path d="M55768 14012
L56624 14012
" />
<path d="M78289 3808
L79144 4664
" />
<path d="M79144 3808
L78289 4664
" />
<path d="M78716 3808
L78716 4664
" />
<path d="M78289 4236
L79144 4236
" />
<path d="M78289 13584
L79144 14439
" />
<path d="M79144 13584
L78289 14439
" />
<path d="M78716 13584
L78716 14439
" />
<path d="M78289 14012
L79144 14012
" />
</g>
<g style="fill:#000000; fill-opacity:0.0; 
stroke:#000000; stroke-width:182.455899; stroke-opacity:1; 
stroke-linecap:round; stroke-linejoin:round;">
<path d="M31894 43847
L33719 45672
" />
<path d="M33719 43847
L31894 45672
" />
<path style="fill:#000000; fill-opacity:0.0; 
stroke:#000000; stroke-width:182.455899; stroke-opacity:1; 
stroke-linecap:round; stroke-linejoin:round;fill:none"
d="M 33452.224498,45405.199496
33452.224498,44115.028749
32162.053751,44115.028749
32162.053751,45405.199496
Z" /> 
<path d="M31931 3935
L33755 5760
" />
<path d="M33755 3935
L31931 5760
" />
<path style="fill:#000000; fill-opacity:0.0; 
stroke:#000000; stroke-width:182.455899; stroke-opacity:1; 
stroke-linecap:round; stroke-linejoin:round;fill:none"
d="M 33488.715678,5492.971670
33488.715678,4202.800923
32198.544931,4202.800923
32198.544931,5492.971670
Z" /> 
<path d="M83210 3935
L85035 5760
" />
<path d="M85035 3935
L83210 5760
" />
<path style="fill:#000000; fill-opacity:0.0; 
stroke:#000000; stroke-width:182.455899; stroke-opacity:1; 
stroke-linecap:round; stroke-linejoin:round;fill:none"
d="M 84767.945988,5492.971670
84767.945988,4202.800923
83477.775241,4202.800923
83477.775241,5492.971670
Z" /> 
<path d="M83210 43847
L85035 45672
" />
<path d="M85035 43847
L83210 45672
" />
<path style="fill:#000000; fill-opacity:0.0; 
stroke:#000000; stroke-width:182.455899; stroke-opacity:1; 
stroke-linecap:round; stroke-linejoin:round;fill:none"
d="M 84767.945988,45405.199496
84767.945988,44115.028749
83477.775241,44115.028749
83477.775241,45405.199496
Z" /> 
</g>
<g style="fill:#000000; fill-opacity:0.0; 
stroke:#000000; stroke-width:188.157645; stroke-opacity:1; 
stroke-linecap:round; stroke-linejoin:round;">
<path d="M57971 3621
L59852 5503
" />
<path d="M59852 3621
L57971 5503
" />
<path style="fill:#000000; fill-opacity:0.0; 
stroke:#000000; stroke-width:188.157645; stroke-opacity:1; 
stroke-linecap:round; stroke-linejoin:round;fill:none"
d="M 58912.016821,5503.017008
59852.805048,4562.228780
58912.016821,3621.440553
57971.228594,4562.228780
Z" /> 
<path d="M75060 12745
L76942 14626
" />
<path d="M76942 12745
L75060 14626
" />
<path style="fill:#000000; fill-opacity:0.0; 
stroke:#000000; stroke-width:188.157645; stroke-opacity:1; 
stroke-linecap:round; stroke-linejoin:round;fill:none"
d="M 76001.292426,14626.952289
76942.080654,13686.164061
76001.292426,12745.375834
75060.504199,13686.164061
Z" /> 
</g>
<g style="fill:#000000; fill-opacity:0.0; 
stroke:#000000; stroke-width:114.034937; stroke-opacity:1; 
stroke-linecap:round; stroke-linejoin:round;">
</g>
<g style="fill:#000000; fill-opacity:0.0; 
stroke:#000000; stroke-width:78.739983; stroke-opacity:1; 
stroke-linecap:round; stroke-linejoin:round;">
<text x="30715.158519" y="48899.338288"
textLength="5774.278754" font-size="1049.868346" lengthAdjust="spacingAndGlyphs"
text-anchor="start" opacity="0">Drill Map:</text>
<g class="stroked-text"><desc>Drill Map:</desc>
<path d="M30942 48861
L30942 48074
L31129 48074
L31241 48111
L31316 48186
L31354 48261
L31391 48411
L31391 48524
L31354 48674
L31316 48749
L31241 48824
L31129 48861
L30942 48861
" />
<path d="M31729 48861
L31729 48336
" />
<path d="M31729 48486
L31766 48411
L31804 48374
L31879 48336
L31954 48336
" />
<path d="M32216 48861
L32216 48336
" />
<path d="M32216 48074
L32179 48111
L32216 48149
L32254 48111
L32216 48074
L32216 48149
" />
<path d="M32704 48861
L32629 48824
L32591 48749
L32591 48074
" />
<path d="M33116 48861
L33041 48824
L33004 48749
L33004 48074
" />
<path d="M34016 48861
L34016 48074
L34279 48636
L34541 48074
L34541 48861
" />
<path d="M35253 48861
L35253 48449
L35216 48374
L35141 48336
L34991 48336
L34916 48374
" />
<path d="M35253 48824
L35178 48861
L34991 48861
L34916 48824
L34879 48749
L34879 48674
L34916 48599
L34991 48561
L35178 48561
L35253 48524
" />
<path d="M35628 48336
L35628 49124
" />
<path d="M35628 48374
L35703 48336
L35853 48336
L35928 48374
L35966 48411
L36003 48486
L36003 48711
L35966 48786
L35928 48824
L35853 48861
L35703 48861
L35628 48824
" />
<path d="M36341 48786
L36378 48824
L36341 48861
L36303 48824
L36341 48786
L36341 48861
" />
<path d="M36341 48374
L36378 48411
L36341 48449
L36303 48411
L36341 48374
L36341 48449
" />
</g></g>
<g style="fill:#000000; fill-opacity:0.0; 
stroke:#000000; stroke-width:22.806987; stroke-opacity:1; 
stroke-linecap:round; stroke-linejoin:round;">
<path d="M29699 50045
L29927 50273
" />
<path d="M29927 50045
L29699 50273
" />
</g>
<g style="fill:#000000; fill-opacity:0.0; 
stroke:#000000; stroke-width:114.034937; stroke-opacity:1; 
stroke-linecap:round; stroke-linejoin:round;">
</g>
<g style="fill:#000000; fill-opacity:0.0; 
stroke:#000000; stroke-width:78.739983; stroke-opacity:1; 
stroke-linecap:round; stroke-linejoin:round;">
<text x="30715.158519" y="50552.881360"
textLength="19201.349167" font-size="1049.868346" lengthAdjust="spacingAndGlyphs"
text-anchor="start" opacity="0">0.400mm / 0.0157" (68 holes)</text>
<g class="stroked-text"><desc>0.400mm / 0.0157" (68 holes)</desc>
<path d="M31091 49727
L31166 49727
L31241 49765
L31279 49802
L31316 49877
L31354 50027
L31354 50215
L31316 50365
L31279 50440
L31241 50477
L31166 50515
L31091 50515
L31016 50477
L30979 50440
L30942 50365
L30904 50215
L30904 50027
L30942 49877
L30979 49802
L31016 49765
L31091 49727
" />
<path d="M31691 50440
L31729 50477
L31691 50515
L31654 50477
L31691 50440
L31691 50515
" />
<path d="M32404 49990
L32404 50515
" />
<path d="M32216 49690
L32029 50252
L32516 50252
" />
<path d="M32966 49727
L33041 49727
L33116 49765
L33154 49802
L33191 49877
L33229 50027
L33229 50215
L33191 50365
L33154 50440
L33116 50477
L33041 50515
L32966 50515
L32891 50477
L32854 50440
L32816 50365
L32779 50215
L32779 50027
L32816 49877
L32854 49802
L32891 49765
L32966 49727
" />
<path d="M33716 49727
L33791 49727
L33866 49765
L33904 49802
L33941 49877
L33979 50027
L33979 50215
L33941 50365
L33904 50440
L33866 50477
L33791 50515
L33716 50515
L33641 50477
L33604 50440
L33566 50365
L33529 50215
L33529 50027
L33566 49877
L33604 49802
L33641 49765
L33716 49727
" />
<path d="M34316 50515
L34316 49990
" />
<path d="M34316 50065
L34354 50027
L34429 49990
L34541 49990
L34616 50027
L34654 50102
L34654 50515
" />
<path d="M34654 50102
L34691 50027
L34766 49990
L34879 49990
L34954 50027
L34991 50102
L34991 50515
" />
<path d="M35366 50515
L35366 49990
" />
<path d="M35366 50065
L35403 50027
L35478 49990
L35591 49990
L35666 50027
L35703 50102
L35703 50515
" />
<path d="M35703 50102
L35741 50027
L35816 49990
L35928 49990
L36003 50027
L36041 50102
L36041 50515
" />
<path d="M37578 49690
L36903 50702
" />
<path d="M38591 49727
L38666 49727
L38741 49765
L38778 49802
L38816 49877
L38853 50027
L38853 50215
L38816 50365
L38778 50440
L38741 50477
L38666 50515
L38591 50515
L38516 50477
L38478 50440
L38441 50365
L38403 50215
L38403 50027
L38441 49877
L38478 49802
L38516 49765
L38591 49727
" />
<path d="M39190 50440
L39228 50477
L39190 50515
L39153 50477
L39190 50440
L39190 50515
" />
<path d="M39715 49727
L39790 49727
L39865 49765
L39903 49802
L39940 49877
L39978 50027
L39978 50215
L39940 50365
L39903 50440
L39865 50477
L39790 50515
L39715 50515
L39640 50477
L39603 50440
L39565 50365
L39528 50215
L39528 50027
L39565 49877
L39603 49802
L39640 49765
L39715 49727
" />
<path d="M40728 50515
L40278 50515
" />
<path d="M40503 50515
L40503 49727
L40428 49840
L40353 49915
L40278 49952
" />
<path d="M41440 49727
L41065 49727
L41028 50102
L41065 50065
L41140 50027
L41328 50027
L41403 50065
L41440 50102
L41478 50177
L41478 50365
L41440 50440
L41403 50477
L41328 50515
L41140 50515
L41065 50477
L41028 50440
" />
<path d="M41740 49727
L42265 49727
L41928 50515
" />
<path d="M42528 49727
L42528 49877
" />
<path d="M42828 49727
L42828 49877
" />
<path d="M43990 50815
L43952 50777
L43877 50665
L43840 50590
L43802 50477
L43765 50290
L43765 50140
L43802 49952
L43840 49840
L43877 49765
L43952 49652
L43990 49615
" />
<path d="M44627 49727
L44477 49727
L44402 49765
L44365 49802
L44290 49915
L44252 50065
L44252 50365
L44290 50440
L44327 50477
L44402 50515
L44552 50515
L44627 50477
L44665 50440
L44702 50365
L44702 50177
L44665 50102
L44627 50065
L44552 50027
L44402 50027
L44327 50065
L44290 50102
L44252 50177
" />
<path d="M45152 50065
L45077 50027
L45040 49990
L45002 49915
L45002 49877
L45040 49802
L45077 49765
L45152 49727
L45302 49727
L45377 49765
L45415 49802
L45452 49877
L45452 49915
L45415 49990
L45377 50027
L45302 50065
L45152 50065
L45077 50102
L45040 50140
L45002 50215
L45002 50365
L45040 50440
L45077 50477
L45152 50515
L45302 50515
L45377 50477
L45415 50440
L45452 50365
L45452 50215
L45415 50140
L45377 50102
L45302 50065
" />
<path d="M46390 50515
L46390 49727
" />
<path d="M46727 50515
L46727 50102
L46690 50027
L46615 49990
L46502 49990
L46427 50027
L46390 50065
" />
<path d="M47214 50515
L47139 50477
L47102 50440
L47064 50365
L47064 50140
L47102 50065
L47139 50027
L47214 49990
L47327 49990
L47402 50027
L47439 50065
L47477 50140
L47477 50365
L47439 50440
L47402 50477
L47327 50515
L47214 50515
" />
<path d="M47927 50515
L47852 50477
L47814 50402
L47814 49727
" />
<path d="M48527 50477
L48452 50515
L48302 50515
L48227 50477
L48189 50402
L48189 50102
L48227 50027
L48302 49990
L48452 49990
L48527 50027
L48564 50102
L48564 50177
L48189 50252
" />
<path d="M48864 50477
L48939 50515
L49089 50515
L49164 50477
L49202 50402
L49202 50365
L49164 50290
L49089 50252
L48977 50252
L48902 50215
L48864 50140
L48864 50102
L48902 50027
L48977 49990
L49089 49990
L49164 50027
" />
<path d="M49464 50815
L49502 50777
L49577 50665
L49614 50590
L49652 50477
L49689 50290
L49689 50140
L49652 49952
L49614 49840
L49577 49765
L49502 49652
L49464 49615
" />
</g></g>
<g style="fill:#000000; fill-opacity:0.0; 
stroke:#000000; stroke-width:43.447311; stroke-opacity:1; 
stroke-linecap:round; stroke-linejoin:round;">
<circle cx="29710.520420" cy="51198.550592" r="217.236554" /> 
</g>
<g style="fill:#000000; fill-opacity:0.0; 
stroke:#000000; stroke-width:114.034937; stroke-opacity:1; 
stroke-linecap:round; stroke-linejoin:round;">
</g>
<g style="fill:#000000; fill-opacity:0.0; 
stroke:#000000; stroke-width:78.739983; stroke-opacity:1; 
stroke-linecap:round; stroke-linejoin:round;">
<text x="30715.158519" y="51592.251080"
textLength="19201.349167" font-size="1049.868346" lengthAdjust="spacingAndGlyphs"
text-anchor="start" opacity="0">0.762mm / 0.0300" (24 holes)</text>
<g class="stroked-text"><desc>0.762mm / 0.0300" (24 holes)</desc>
<path d="M31091 50767
L31166 50767
L31241 50804
L31279 50842
L31316 50917
L31354 51067
L31354 51254
L31316 51404
L31279 51479
L31241 51517
L31166 51554
L31091 51554
L31016 51517
L30979 51479
L30942 51404
L30904 51254
L30904 51067
L30942 50917
L30979 50842
L31016 50804
L31091 50767
" />
<path d="M31691 51479
L31729 51517
L31691 51554
L31654 51517
L31691 51479
L31691 51554
" />
<path d="M31991 50767
L32516 50767
L32179 51554
" />
<path d="M33154 50767
L33004 50767
L32929 50804
L32891 50842
L32816 50954
L32779 51104
L32779 51404
L32816 51479
L32854 51517
L32929 51554
L33079 51554
L33154 51517
L33191 51479
L33229 51404
L33229 51217
L33191 51142
L33154 51104
L33079 51067
L32929 51067
L32854 51104
L32816 51142
L32779 51217
" />
<path d="M33529 50842
L33566 50804
L33641 50767
L33829 50767
L33904 50804
L33941 50842
L33979 50917
L33979 50992
L33941 51104
L33491 51554
L33979 51554
" />
<path d="M34316 51554
L34316 51029
" />
<path d="M34316 51104
L34354 51067
L34429 51029
L34541 51029
L34616 51067
L34654 51142
L34654 51554
" />
<path d="M34654 51142
L34691 51067
L34766 51029
L34879 51029
L34954 51067
L34991 51142
L34991 51554
" />
<path d="M35366 51554
L35366 51029
" />
<path d="M35366 51104
L35403 51067
L35478 51029
L35591 51029
L35666 51067
L35703 51142
L35703 51554
" />
<path d="M35703 51142
L35741 51067
L35816 51029
L35928 51029
L36003 51067
L36041 51142
L36041 51554
" />
<path d="M37578 50729
L36903 51742
" />
<path d="M38591 50767
L38666 50767
L38741 50804
L38778 50842
L38816 50917
L38853 51067
L38853 51254
L38816 51404
L38778 51479
L38741 51517
L38666 51554
L38591 51554
L38516 51517
L38478 51479
L38441 51404
L38403 51254
L38403 51067
L38441 50917
L38478 50842
L38516 50804
L38591 50767
" />
<path d="M39190 51479
L39228 51517
L39190 51554
L39153 51517
L39190 51479
L39190 51554
" />
<path d="M39715 50767
L39790 50767
L39865 50804
L39903 50842
L39940 50917
L39978 51067
L39978 51254
L39940 51404
L39903 51479
L39865 51517
L39790 51554
L39715 51554
L39640 51517
L39603 51479
L39565 51404
L39528 51254
L39528 51067
L39565 50917
L39603 50842
L39640 50804
L39715 50767
" />
<path d="M40240 50767
L40728 50767
L40465 51067
L40578 51067
L40653 51104
L40690 51142
L40728 51217
L40728 51404
L40690 51479
L40653 51517
L40578 51554
L40353 51554
L40278 51517
L40240 51479
" />
<path d="M41215 50767
L41290 50767
L41365 50804
L41403 50842
L41440 50917
L41478 51067
L41478 51254
L41440 51404
L41403 51479
L41365 51517
L41290 51554
L41215 51554
L41140 51517
L41103 51479
L41065 51404
L41028 51254
L41028 51067
L41065 50917
L41103 50842
L41140 50804
L41215 50767
" />
<path d="M41965 50767
L42040 50767
L42115 50804
L42153 50842
L42190 50917
L42228 51067
L42228 51254
L42190 51404
L42153 51479
L42115 51517
L42040 51554
L41965 51554
L41890 51517
L41853 51479
L41815 51404
L41778 51254
L41778 51067
L41815 50917
L41853 50842
L41890 50804
L41965 50767
" />
<path d="M42528 50767
L42528 50917
" />
<path d="M42828 50767
L42828 50917
" />
<path d="M43990 51854
L43952 51817
L43877 51704
L43840 51629
L43802 51517
L43765 51329
L43765 51179
L43802 50992
L43840 50879
L43877 50804
L43952 50692
L43990 50654
" />
<path d="M44252 50842
L44290 50804
L44365 50767
L44552 50767
L44627 50804
L44665 50842
L44702 50917
L44702 50992
L44665 51104
L44215 51554
L44702 51554
" />
<path d="M45377 51029
L45377 51554
" />
<path d="M45190 50729
L45002 51292
L45490 51292
" />
<path d="M46390 51554
L46390 50767
" />
<path d="M46727 51554
L46727 51142
L46690 51067
L46615 51029
L46502 51029
L46427 51067
L46390 51104
" />
<path d="M47214 51554
L47139 51517
L47102 51479
L47064 51404
L47064 51179
L47102 51104
L47139 51067
L47214 51029
L47327 51029
L47402 51067
L47439 51104
L47477 51179
L47477 51404
L47439 51479
L47402 51517
L47327 51554
L47214 51554
" />
<path d="M47927 51554
L47852 51517
L47814 51442
L47814 50767
" />
<path d="M48527 51517
L48452 51554
L48302 51554
L48227 51517
L48189 51442
L48189 51142
L48227 51067
L48302 51029
L48452 51029
L48527 51067
L48564 51142
L48564 51217
L48189 51292
" />
<path d="M48864 51517
L48939 51554
L49089 51554
L49164 51517
L49202 51442
L49202 51404
L49164 51329
L49089 51292
L48977 51292
L48902 51254
L48864 51179
L48864 51142
L48902 51067
L48977 51029
L49089 51029
L49164 51067
" />
<path d="M49464 51854
L49502 51817
L49577 51704
L49614 51629
L49652 51517
L49689 51329
L49689 51179
L49652 50992
L49614 50879
L49577 50804
L49502 50692
L49464 50654
" />
</g></g>
<g style="fill:#000000; fill-opacity:0.0; 
stroke:#000000; stroke-width:45.613975; stroke-opacity:1; 
stroke-linecap:round; stroke-linejoin:round;">
<path d="M29699 52009
L29699 52465
" />
<path d="M29471 52237
L29927 52237
" />
</g>
<g style="fill:#000000; fill-opacity:0.0; 
stroke:#000000; stroke-width:114.034937; stroke-opacity:1; 
stroke-linecap:round; stroke-linejoin:round;">
</g>
<g style="fill:#000000; fill-opacity:0.0; 
stroke:#000000; stroke-width:78.739983; stroke-opacity:1; 
stroke-linecap:round; stroke-linejoin:round;">
<text x="30715.158519" y="52631.620799"
textLength="19201.349167" font-size="1049.868346" lengthAdjust="spacingAndGlyphs"
text-anchor="start" opacity="0">0.800mm / 0.0315" (14 holes)</text>
<g class="stroked-text"><desc>0.800mm / 0.0315" (14 holes)</desc>
<path d="M31091 51806
L31166 51806
L31241 51844
L31279 51881
L31316 51956
L31354 52106
L31354 52294
L31316 52444
L31279 52519
L31241 52556
L31166 52594
L31091 52594
L31016 52556
L30979 52519
L30942 52444
L30904 52294
L30904 52106
L30942 51956
L30979 51881
L31016 51844
L31091 51806
" />
<path d="M31691 52519
L31729 52556
L31691 52594
L31654 52556
L31691 52519
L31691 52594
" />
<path d="M32179 52144
L32104 52106
L32066 52069
L32029 51994
L32029 51956
L32066 51881
L32104 51844
L32179 51806
L32329 51806
L32404 51844
L32441 51881
L32479 51956
L32479 51994
L32441 52069
L32404 52106
L32329 52144
L32179 52144
L32104 52181
L32066 52219
L32029 52294
L32029 52444
L32066 52519
L32104 52556
L32179 52594
L32329 52594
L32404 52556
L32441 52519
L32479 52444
L32479 52294
L32441 52219
L32404 52181
L32329 52144
" />
<path d="M32966 51806
L33041 51806
L33116 51844
L33154 51881
L33191 51956
L33229 52106
L33229 52294
L33191 52444
L33154 52519
L33116 52556
L33041 52594
L32966 52594
L32891 52556
L32854 52519
L32816 52444
L32779 52294
L32779 52106
L32816 51956
L32854 51881
L32891 51844
L32966 51806
" />
<path d="M33716 51806
L33791 51806
L33866 51844
L33904 51881
L33941 51956
L33979 52106
L33979 52294
L33941 52444
L33904 52519
L33866 52556
L33791 52594
L33716 52594
L33641 52556
L33604 52519
L33566 52444
L33529 52294
L33529 52106
L33566 51956
L33604 51881
L33641 51844
L33716 51806
" />
<path d="M34316 52594
L34316 52069
" />
<path d="M34316 52144
L34354 52106
L34429 52069
L34541 52069
L34616 52106
L34654 52181
L34654 52594
" />
<path d="M34654 52181
L34691 52106
L34766 52069
L34879 52069
L34954 52106
L34991 52181
L34991 52594
" />
<path d="M35366 52594
L35366 52069
" />
<path d="M35366 52144
L35403 52106
L35478 52069
L35591 52069
L35666 52106
L35703 52181
L35703 52594
" />
<path d="M35703 52181
L35741 52106
L35816 52069
L35928 52069
L36003 52106
L36041 52181
L36041 52594
" />
<path d="M37578 51769
L36903 52781
" />
<path d="M38591 51806
L38666 51806
L38741 51844
L38778 51881
L38816 51956
L38853 52106
L38853 52294
L38816 52444
L38778 52519
L38741 52556
L38666 52594
L38591 52594
L38516 52556
L38478 52519
L38441 52444
L38403 52294
L38403 52106
L38441 51956
L38478 51881
L38516 51844
L38591 51806
" />
<path d="M39190 52519
L39228 52556
L39190 52594
L39153 52556
L39190 52519
L39190 52594
" />
<path d="M39715 51806
L39790 51806
L39865 51844
L39903 51881
L39940 51956
L39978 52106
L39978 52294
L39940 52444
L39903 52519
L39865 52556
L39790 52594
L39715 52594
L39640 52556
L39603 52519
L39565 52444
L39528 52294
L39528 52106
L39565 51956
L39603 51881
L39640 51844
L39715 51806
" />
<path d="M40240 51806
L40728 51806
L40465 52106
L40578 52106
L40653 52144
L40690 52181
L40728 52256
L40728 52444
L40690 52519
L40653 52556
L40578 52594
L40353 52594
L40278 52556
L40240 52519
" />
<path d="M41478 52594
L41028 52594
" />
<path d="M41253 52594
L41253 51806
L41178 51919
L41103 51994
L41028 52031
" />
<path d="M42190 51806
L41815 51806
L41778 52181
L41815 52144
L41890 52106
L42078 52106
L42153 52144
L42190 52181
L42228 52256
L42228 52444
L42190 52519
L42153 52556
L42078 52594
L41890 52594
L41815 52556
L41778 52519
" />
<path d="M42528 51806
L42528 51956
" />
<path d="M42828 51806
L42828 51956
" />
<path d="M43990 52894
L43952 52856
L43877 52744
L43840 52669
L43802 52556
L43765 52369
L43765 52219
L43802 52031
L43840 51919
L43877 51844
L43952 51731
L43990 51694
" />
<path d="M44702 52594
L44252 52594
" />
<path d="M44477 52594
L44477 51806
L44402 51919
L44327 51994
L44252 52031
" />
<path d="M45377 52069
L45377 52594
" />
<path d="M45190 51769
L45002 52331
L45490 52331
" />
<path d="M46390 52594
L46390 51806
" />
<path d="M46727 52594
L46727 52181
L46690 52106
L46615 52069
L46502 52069
L46427 52106
L46390 52144
" />
<path d="M47214 52594
L47139 52556
L47102 52519
L47064 52444
L47064 52219
L47102 52144
L47139 52106
L47214 52069
L47327 52069
L47402 52106
L47439 52144
L47477 52219
L47477 52444
L47439 52519
L47402 52556
L47327 52594
L47214 52594
" />
<path d="M47927 52594
L47852 52556
L47814 52481
L47814 51806
" />
<path d="M48527 52556
L48452 52594
L48302 52594
L48227 52556
L48189 52481
L48189 52181
L48227 52106
L48302 52069
L48452 52069
L48527 52106
L48564 52181
L48564 52256
L48189 52331
" />
<path d="M48864 52556
L48939 52594
L49089 52594
L49164 52556
L49202 52481
L49202 52444
L49164 52369
L49089 52331
L48977 52331
L48902 52294
L48864 52219
L48864 52181
L48902 52106
L48977 52069
L49089 52069
L49164 52106
" />
<path d="M49464 52894
L49502 52856
L49577 52744
L49614 52669
L49652 52556
L49689 52369
L49689 52219
L49652 52031
L49614 51919
L49577 51844
L49502 51731
L49464 51694
" />
</g></g>
<g style="fill:#000000; fill-opacity:0.0; 
stroke:#000000; stroke-width:57.017468; stroke-opacity:1; 
stroke-linecap:round; stroke-linejoin:round;">
<path style="fill:#000000; fill-opacity:0.0; 
stroke:#000000; stroke-width:57.017468; stroke-opacity:1; 
stroke-linecap:round; stroke-linejoin:round;fill:none"
d="M 29844.258883,53478.879282
29844.258883,53075.700781
29441.080382,53075.700781
29441.080382,53478.879282
Z" /> 
</g>
<g style="fill:#000000; fill-opacity:0.0; 
stroke:#000000; stroke-width:114.034937; stroke-opacity:1; 
stroke-linecap:round; stroke-linejoin:round;">
</g>
<g style="fill:#000000; fill-opacity:0.0; 
stroke:#000000; stroke-width:78.739983; stroke-opacity:1; 
stroke-linecap:round; stroke-linejoin:round;">
<text x="30715.158519" y="53670.990519"
textLength="19201.349167" font-size="1049.868346" lengthAdjust="spacingAndGlyphs"
text-anchor="start" opacity="0">1.000mm / 0.0394" (88 holes)</text>
<g class="stroked-text"><desc>1.000mm / 0.0394" (88 holes)</desc>
<path d="M31354 53633
L30904 53633
" />
<path d="M31129 53633
L31129 52846
L31054 52958
L30979 53033
L30904 53071
" />
<path d="M31691 53558
L31729 53596
L31691 53633
L31654 53596
L31691 53558
L31691 53633
" />
<path d="M32216 52846
L32291 52846
L32366 52883
L32404 52921
L32441 52996
L32479 53146
L32479 53333
L32441 53483
L32404 53558
L32366 53596
L32291 53633
L32216 53633
L32141 53596
L32104 53558
L32066 53483
L32029 53333
L32029 53146
L32066 52996
L32104 52921
L32141 52883
L32216 52846
" />
<path d="M32966 52846
L33041 52846
L33116 52883
L33154 52921
L33191 52996
L33229 53146
L33229 53333
L33191 53483
L33154 53558
L33116 53596
L33041 53633
L32966 53633
L32891 53596
L32854 53558
L32816 53483
L32779 53333
L32779 53146
L32816 52996
L32854 52921
L32891 52883
L32966 52846
" />
<path d="M33716 52846
L33791 52846
L33866 52883
L33904 52921
L33941 52996
L33979 53146
L33979 53333
L33941 53483
L33904 53558
L33866 53596
L33791 53633
L33716 53633
L33641 53596
L33604 53558
L33566 53483
L33529 53333
L33529 53146
L33566 52996
L33604 52921
L33641 52883
L33716 52846
" />
<path d="M34316 53633
L34316 53108
" />
<path d="M34316 53183
L34354 53146
L34429 53108
L34541 53108
L34616 53146
L34654 53221
L34654 53633
" />
<path d="M34654 53221
L34691 53146
L34766 53108
L34879 53108
L34954 53146
L34991 53221
L34991 53633
" />
<path d="M35366 53633
L35366 53108
" />
<path d="M35366 53183
L35403 53146
L35478 53108
L35591 53108
L35666 53146
L35703 53221
L35703 53633
" />
<path d="M35703 53221
L35741 53146
L35816 53108
L35928 53108
L36003 53146
L36041 53221
L36041 53633
" />
<path d="M37578 52808
L36903 53820
" />
<path d="M38591 52846
L38666 52846
L38741 52883
L38778 52921
L38816 52996
L38853 53146
L38853 53333
L38816 53483
L38778 53558
L38741 53596
L38666 53633
L38591 53633
L38516 53596
L38478 53558
L38441 53483
L38403 53333
L38403 53146
L38441 52996
L38478 52921
L38516 52883
L38591 52846
" />
<path d="M39190 53558
L39228 53596
L39190 53633
L39153 53596
L39190 53558
L39190 53633
" />
<path d="M39715 52846
L39790 52846
L39865 52883
L39903 52921
L39940 52996
L39978 53146
L39978 53333
L39940 53483
L39903 53558
L39865 53596
L39790 53633
L39715 53633
L39640 53596
L39603 53558
L39565 53483
L39528 53333
L39528 53146
L39565 52996
L39603 52921
L39640 52883
L39715 52846
" />
<path d="M40240 52846
L40728 52846
L40465 53146
L40578 53146
L40653 53183
L40690 53221
L40728 53296
L40728 53483
L40690 53558
L40653 53596
L40578 53633
L40353 53633
L40278 53596
L40240 53558
" />
<path d="M41103 53633
L41253 53633
L41328 53596
L41365 53558
L41440 53446
L41478 53296
L41478 52996
L41440 52921
L41403 52883
L41328 52846
L41178 52846
L41103 52883
L41065 52921
L41028 52996
L41028 53183
L41065 53258
L41103 53296
L41178 53333
L41328 53333
L41403 53296
L41440 53258
L41478 53183
" />
<path d="M42153 53108
L42153 53633
" />
<path d="M41965 52808
L41778 53371
L42265 53371
" />
<path d="M42528 52846
L42528 52996
" />
<path d="M42828 52846
L42828 52996
" />
<path d="M43990 53933
L43952 53895
L43877 53783
L43840 53708
L43802 53596
L43765 53408
L43765 53258
L43802 53071
L43840 52958
L43877 52883
L43952 52771
L43990 52733
" />
<path d="M44402 53183
L44327 53146
L44290 53108
L44252 53033
L44252 52996
L44290 52921
L44327 52883
L44402 52846
L44552 52846
L44627 52883
L44665 52921
L44702 52996
L44702 53033
L44665 53108
L44627 53146
L44552 53183
L44402 53183
L44327 53221
L44290 53258
L44252 53333
L44252 53483
L44290 53558
L44327 53596
L44402 53633
L44552 53633
L44627 53596
L44665 53558
L44702 53483
L44702 53333
L44665 53258
L44627 53221
L44552 53183
" />
<path d="M45152 53183
L45077 53146
L45040 53108
L45002 53033
L45002 52996
L45040 52921
L45077 52883
L45152 52846
L45302 52846
L45377 52883
L45415 52921
L45452 52996
L45452 53033
L45415 53108
L45377 53146
L45302 53183
L45152 53183
L45077 53221
L45040 53258
L45002 53333
L45002 53483
L45040 53558
L45077 53596
L45152 53633
L45302 53633
L45377 53596
L45415 53558
L45452 53483
L45452 53333
L45415 53258
L45377 53221
L45302 53183
" />
<path d="M46390 53633
L46390 52846
" />
<path d="M46727 53633
L46727 53221
L46690 53146
L46615 53108
L46502 53108
L46427 53146
L46390 53183
" />
<path d="M47214 53633
L47139 53596
L47102 53558
L47064 53483
L47064 53258
L47102 53183
L47139 53146
L47214 53108
L47327 53108
L47402 53146
L47439 53183
L47477 53258
L47477 53483
L47439 53558
L47402 53596
L47327 53633
L47214 53633
" />
<path d="M47927 53633
L47852 53596
L47814 53521
L47814 52846
" />
<path d="M48527 53596
L48452 53633
L48302 53633
L48227 53596
L48189 53521
L48189 53221
L48227 53146
L48302 53108
L48452 53108
L48527 53146
L48564 53221
L48564 53296
L48189 53371
" />
<path d="M48864 53596
L48939 53633
L49089 53633
L49164 53596
L49202 53521
L49202 53483
L49164 53408
L49089 53371
L48977 53371
L48902 53333
L48864 53258
L48864 53221
L48902 53146
L48977 53108
L49089 53108
L49164 53146
" />
<path d="M49464 53933
L49502 53895
L49577 53783
L49614 53708
L49652 53596
L49689 53408
L49689 53258
L49652 53071
L49614 52958
L49577 52883
L49502 52771
L49464 52733
" />
</g></g>
<g style="fill:#000000; fill-opacity:0.0; 
stroke:#000000; stroke-width:58.157818; stroke-opacity:1; 
stroke-linecap:round; stroke-linejoin:round;">
<path style="fill:#000000; fill-opacity:0.0; 
stroke:#000000; stroke-width:58.157818; stroke-opacity:1; 
stroke-linecap:round; stroke-linejoin:round;fill:none"
d="M 29636.967886,54610.694274
29927.756974,54319.905185
29636.967886,54029.116097
29346.178797,54319.905185
Z" /> 
</g>
<g style="fill:#000000; fill-opacity:0.0; 
stroke:#000000; stroke-width:114.034937; stroke-opacity:1; 
stroke-linecap:round; stroke-linejoin:round;">
</g>
<g style="fill:#000000; fill-opacity:0.0; 
stroke:#000000; stroke-width:78.739983; stroke-opacity:1; 
stroke-linecap:round; stroke-linejoin:round;">
<text x="30715.158519" y="54713.605673"
textLength="18451.442880" font-size="1049.868346" lengthAdjust="spacingAndGlyphs"
text-anchor="start" opacity="0">1.020mm / 0.0402" (4 holes)</text>
<g class="stroked-text"><desc>1.020mm / 0.0402" (4 holes)</desc>
<path d="M31354 54676
L30904 54676
" />
<path d="M31129 54676
L31129 53888
L31054 54001
L30979 54076
L30904 54113
" />
<path d="M31691 54601
L31729 54638
L31691 54676
L31654 54638
L31691 54601
L31691 54676
" />
<path d="M32216 53888
L32291 53888
L32366 53926
L32404 53963
L32441 54038
L32479 54188
L32479 54376
L32441 54526
L32404 54601
L32366 54638
L32291 54676
L32216 54676
L32141 54638
L32104 54601
L32066 54526
L32029 54376
L32029 54188
L32066 54038
L32104 53963
L32141 53926
L32216 53888
" />
<path d="M32779 53963
L32816 53926
L32891 53888
L33079 53888
L33154 53926
L33191 53963
L33229 54038
L33229 54113
L33191 54226
L32741 54676
L33229 54676
" />
<path d="M33716 53888
L33791 53888
L33866 53926
L33904 53963
L33941 54038
L33979 54188
L33979 54376
L33941 54526
L33904 54601
L33866 54638
L33791 54676
L33716 54676
L33641 54638
L33604 54601
L33566 54526
L33529 54376
L33529 54188
L33566 54038
L33604 53963
L33641 53926
L33716 53888
" />
<path d="M34316 54676
L34316 54151
" />
<path d="M34316 54226
L34354 54188
L34429 54151
L34541 54151
L34616 54188
L34654 54263
L34654 54676
" />
<path d="M34654 54263
L34691 54188
L34766 54151
L34879 54151
L34954 54188
L34991 54263
L34991 54676
" />
<path d="M35366 54676
L35366 54151
" />
<path d="M35366 54226
L35403 54188
L35478 54151
L35591 54151
L35666 54188
L35703 54263
L35703 54676
" />
<path d="M35703 54263
L35741 54188
L35816 54151
L35928 54151
L36003 54188
L36041 54263
L36041 54676
" />
<path d="M37578 53851
L36903 54863
" />
<path d="M38591 53888
L38666 53888
L38741 53926
L38778 53963
L38816 54038
L38853 54188
L38853 54376
L38816 54526
L38778 54601
L38741 54638
L38666 54676
L38591 54676
L38516 54638
L38478 54601
L38441 54526
L38403 54376
L38403 54188
L38441 54038
L38478 53963
L38516 53926
L38591 53888
" />
<path d="M39190 54601
L39228 54638
L39190 54676
L39153 54638
L39190 54601
L39190 54676
" />
<path d="M39715 53888
L39790 53888
L39865 53926
L39903 53963
L39940 54038
L39978 54188
L39978 54376
L39940 54526
L39903 54601
L39865 54638
L39790 54676
L39715 54676
L39640 54638
L39603 54601
L39565 54526
L39528 54376
L39528 54188
L39565 54038
L39603 53963
L39640 53926
L39715 53888
" />
<path d="M40653 54151
L40653 54676
" />
<path d="M40465 53851
L40278 54413
L40765 54413
" />
<path d="M41215 53888
L41290 53888
L41365 53926
L41403 53963
L41440 54038
L41478 54188
L41478 54376
L41440 54526
L41403 54601
L41365 54638
L41290 54676
L41215 54676
L41140 54638
L41103 54601
L41065 54526
L41028 54376
L41028 54188
L41065 54038
L41103 53963
L41140 53926
L41215 53888
" />
<path d="M41778 53963
L41815 53926
L41890 53888
L42078 53888
L42153 53926
L42190 53963
L42228 54038
L42228 54113
L42190 54226
L41740 54676
L42228 54676
" />
<path d="M42528 53888
L42528 54038
" />
<path d="M42828 53888
L42828 54038
" />
<path d="M43990 54976
L43952 54938
L43877 54826
L43840 54751
L43802 54638
L43765 54451
L43765 54301
L43802 54113
L43840 54001
L43877 53926
L43952 53813
L43990 53776
" />
<path d="M44627 54151
L44627 54676
" />
<path d="M44440 53851
L44252 54413
L44740 54413
" />
<path d="M45640 54676
L45640 53888
" />
<path d="M45977 54676
L45977 54263
L45940 54188
L45865 54151
L45752 54151
L45677 54188
L45640 54226
" />
<path d="M46465 54676
L46390 54638
L46352 54601
L46315 54526
L46315 54301
L46352 54226
L46390 54188
L46465 54151
L46577 54151
L46652 54188
L46690 54226
L46727 54301
L46727 54526
L46690 54601
L46652 54638
L46577 54676
L46465 54676
" />
<path d="M47177 54676
L47102 54638
L47064 54563
L47064 53888
" />
<path d="M47777 54638
L47702 54676
L47552 54676
L47477 54638
L47439 54563
L47439 54263
L47477 54188
L47552 54151
L47702 54151
L47777 54188
L47814 54263
L47814 54338
L47439 54413
" />
<path d="M48114 54638
L48189 54676
L48339 54676
L48414 54638
L48452 54563
L48452 54526
L48414 54451
L48339 54413
L48227 54413
L48152 54376
L48114 54301
L48114 54263
L48152 54188
L48227 54151
L48339 54151
L48414 54188
" />
<path d="M48714 54976
L48752 54938
L48827 54826
L48864 54751
L48902 54638
L48939 54451
L48939 54301
L48902 54113
L48864 54001
L48827 53926
L48752 53813
L48714 53776
" />
</g></g>
<g style="fill:#000000; fill-opacity:0.0; 
stroke:#000000; stroke-width:62.719215; stroke-opacity:1; 
stroke-linecap:round; stroke-linejoin:round;">
<path d="M29300 55060
L29927 55687
" />
<path d="M29927 55060
L29300 55687
" />
<circle cx="29614.160898" cy="55373.923833" r="313.596076" /> 
</g>
<g style="fill:#000000; fill-opacity:0.0; 
stroke:#000000; stroke-width:114.034937; stroke-opacity:1; 
stroke-linecap:round; stroke-linejoin:round;">
</g>
<g style="fill:#000000; fill-opacity:0.0; 
stroke:#000000; stroke-width:78.739983; stroke-opacity:1; 
stroke-linecap:round; stroke-linejoin:round;">
<text x="30715.158519" y="55767.624320"
textLength="18451.442880" font-size="1049.868346" lengthAdjust="spacingAndGlyphs"
text-anchor="start" opacity="0">1.100mm / 0.0433" (9 holes)</text>
<g class="stroked-text"><desc>1.100mm / 0.0433" (9 holes)</desc>
<path d="M31354 55730
L30904 55730
" />
<path d="M31129 55730
L31129 54942
L31054 55055
L30979 55130
L30904 55167
" />
<path d="M31691 55655
L31729 55692
L31691 55730
L31654 55692
L31691 55655
L31691 55730
" />
<path d="M32479 55730
L32029 55730
" />
<path d="M32254 55730
L32254 54942
L32179 55055
L32104 55130
L32029 55167
" />
<path d="M32966 54942
L33041 54942
L33116 54980
L33154 55017
L33191 55092
L33229 55242
L33229 55430
L33191 55580
L33154 55655
L33116 55692
L33041 55730
L32966 55730
L32891 55692
L32854 55655
L32816 55580
L32779 55430
L32779 55242
L32816 55092
L32854 55017
L32891 54980
L32966 54942
" />
<path d="M33716 54942
L33791 54942
L33866 54980
L33904 55017
L33941 55092
L33979 55242
L33979 55430
L33941 55580
L33904 55655
L33866 55692
L33791 55730
L33716 55730
L33641 55692
L33604 55655
L33566 55580
L33529 55430
L33529 55242
L33566 55092
L33604 55017
L33641 54980
L33716 54942
" />
<path d="M34316 55730
L34316 55205
" />
<path d="M34316 55280
L34354 55242
L34429 55205
L34541 55205
L34616 55242
L34654 55317
L34654 55730
" />
<path d="M34654 55317
L34691 55242
L34766 55205
L34879 55205
L34954 55242
L34991 55317
L34991 55730
" />
<path d="M35366 55730
L35366 55205
" />
<path d="M35366 55280
L35403 55242
L35478 55205
L35591 55205
L35666 55242
L35703 55317
L35703 55730
" />
<path d="M35703 55317
L35741 55242
L35816 55205
L35928 55205
L36003 55242
L36041 55317
L36041 55730
" />
<path d="M37578 54905
L36903 55917
" />
<path d="M38591 54942
L38666 54942
L38741 54980
L38778 55017
L38816 55092
L38853 55242
L38853 55430
L38816 55580
L38778 55655
L38741 55692
L38666 55730
L38591 55730
L38516 55692
L38478 55655
L38441 55580
L38403 55430
L38403 55242
L38441 55092
L38478 55017
L38516 54980
L38591 54942
" />
<path d="M39190 55655
L39228 55692
L39190 55730
L39153 55692
L39190 55655
L39190 55730
" />
<path d="M39715 54942
L39790 54942
L39865 54980
L39903 55017
L39940 55092
L39978 55242
L39978 55430
L39940 55580
L39903 55655
L39865 55692
L39790 55730
L39715 55730
L39640 55692
L39603 55655
L39565 55580
L39528 55430
L39528 55242
L39565 55092
L39603 55017
L39640 54980
L39715 54942
" />
<path d="M40653 55205
L40653 55730
" />
<path d="M40465 54905
L40278 55467
L40765 55467
" />
<path d="M40990 54942
L41478 54942
L41215 55242
L41328 55242
L41403 55280
L41440 55317
L41478 55392
L41478 55580
L41440 55655
L41403 55692
L41328 55730
L41103 55730
L41028 55692
L40990 55655
" />
<path d="M41740 54942
L42228 54942
L41965 55242
L42078 55242
L42153 55280
L42190 55317
L42228 55392
L42228 55580
L42190 55655
L42153 55692
L42078 55730
L41853 55730
L41778 55692
L41740 55655
" />
<path d="M42528 54942
L42528 55092
" />
<path d="M42828 54942
L42828 55092
" />
<path d="M43990 56030
L43952 55992
L43877 55880
L43840 55805
L43802 55692
L43765 55505
L43765 55355
L43802 55167
L43840 55055
L43877 54980
L43952 54867
L43990 54830
" />
<path d="M44327 55730
L44477 55730
L44552 55692
L44590 55655
L44665 55542
L44702 55392
L44702 55092
L44665 55017
L44627 54980
L44552 54942
L44402 54942
L44327 54980
L44290 55017
L44252 55092
L44252 55280
L44290 55355
L44327 55392
L44402 55430
L44552 55430
L44627 55392
L44665 55355
L44702 55280
" />
<path d="M45640 55730
L45640 54942
" />
<path d="M45977 55730
L45977 55317
L45940 55242
L45865 55205
L45752 55205
L45677 55242
L45640 55280
" />
<path d="M46465 55730
L46390 55692
L46352 55655
L46315 55580
L46315 55355
L46352 55280
L46390 55242
L46465 55205
L46577 55205
L46652 55242
L46690 55280
L46727 55355
L46727 55580
L46690 55655
L46652 55692
L46577 55730
L46465 55730
" />
<path d="M47177 55730
L47102 55692
L47064 55617
L47064 54942
" />
<path d="M47777 55692
L47702 55730
L47552 55730
L47477 55692
L47439 55617
L47439 55317
L47477 55242
L47552 55205
L47702 55205
L47777 55242
L47814 55317
L47814 55392
L47439 55467
" />
<path d="M48114 55692
L48189 55730
L48339 55730
L48414 55692
L48452 55617
L48452 55580
L48414 55505
L48339 55467
L48227 55467
L48152 55430
L48114 55355
L48114 55317
L48152 55242
L48227 55205
L48339 55205
L48414 55242
" />
<path d="M48714 56030
L48752 55992
L48827 55880
L48864 55805
L48902 55692
L48939 55505
L48939 55355
L48902 55167
L48864 55055
L48827 54980
L48752 54867
L48714 54830
" />
</g><path d="M29140 56079
L29927 56867
" />
<path d="M29927 56079
L29140 56867
" />
<path d="M29534 56079
L29534 56867
" />
<path d="M29140 56473
L29927 56473
" />
</g>
<g style="fill:#000000; fill-opacity:0.0; 
stroke:#000000; stroke-width:114.034937; stroke-opacity:1; 
stroke-linecap:round; stroke-linejoin:round;">
</g>
<g style="fill:#000000; fill-opacity:0.0; 
stroke:#000000; stroke-width:78.739983; stroke-opacity:1; 
stroke-linecap:round; stroke-linejoin:round;">
<text x="30715.158519" y="56867.256942"
textLength="18451.442880" font-size="1049.868346" lengthAdjust="spacingAndGlyphs"
text-anchor="start" opacity="0">1.500mm / 0.0591" (4 holes)</text>
<g class="stroked-text"><desc>1.500mm / 0.0591" (4 holes)</desc>
<path d="M31354 56829
L30904 56829
" />
<path d="M31129 56829
L31129 56042
L31054 56154
L30979 56229
L30904 56267
" />
<path d="M31691 56754
L31729 56792
L31691 56829
L31654 56792
L31691 56754
L31691 56829
" />
<path d="M32441 56042
L32066 56042
L32029 56417
L32066 56379
L32141 56342
L32329 56342
L32404 56379
L32441 56417
L32479 56492
L32479 56679
L32441 56754
L32404 56792
L32329 56829
L32141 56829
L32066 56792
L32029 56754
" />
<path d="M32966 56042
L33041 56042
L33116 56079
L33154 56117
L33191 56192
L33229 56342
L33229 56529
L33191 56679
L33154 56754
L33116 56792
L33041 56829
L32966 56829
L32891 56792
L32854 56754
L32816 56679
L32779 56529
L32779 56342
L32816 56192
L32854 56117
L32891 56079
L32966 56042
" />
<path d="M33716 56042
L33791 56042
L33866 56079
L33904 56117
L33941 56192
L33979 56342
L33979 56529
L33941 56679
L33904 56754
L33866 56792
L33791 56829
L33716 56829
L33641 56792
L33604 56754
L33566 56679
L33529 56529
L33529 56342
L33566 56192
L33604 56117
L33641 56079
L33716 56042
" />
<path d="M34316 56829
L34316 56304
" />
<path d="M34316 56379
L34354 56342
L34429 56304
L34541 56304
L34616 56342
L34654 56417
L34654 56829
" />
<path d="M34654 56417
L34691 56342
L34766 56304
L34879 56304
L34954 56342
L34991 56417
L34991 56829
" />
<path d="M35366 56829
L35366 56304
" />
<path d="M35366 56379
L35403 56342
L35478 56304
L35591 56304
L35666 56342
L35703 56417
L35703 56829
" />
<path d="M35703 56417
L35741 56342
L35816 56304
L35928 56304
L36003 56342
L36041 56417
L36041 56829
" />
<path d="M37578 56004
L36903 57017
" />
<path d="M38591 56042
L38666 56042
L38741 56079
L38778 56117
L38816 56192
L38853 56342
L38853 56529
L38816 56679
L38778 56754
L38741 56792
L38666 56829
L38591 56829
L38516 56792
L38478 56754
L38441 56679
L38403 56529
L38403 56342
L38441 56192
L38478 56117
L38516 56079
L38591 56042
" />
<path d="M39190 56754
L39228 56792
L39190 56829
L39153 56792
L39190 56754
L39190 56829
" />
<path d="M39715 56042
L39790 56042
L39865 56079
L39903 56117
L39940 56192
L39978 56342
L39978 56529
L39940 56679
L39903 56754
L39865 56792
L39790 56829
L39715 56829
L39640 56792
L39603 56754
L39565 56679
L39528 56529
L39528 56342
L39565 56192
L39603 56117
L39640 56079
L39715 56042
" />
<path d="M40690 56042
L40315 56042
L40278 56417
L40315 56379
L40390 56342
L40578 56342
L40653 56379
L40690 56417
L40728 56492
L40728 56679
L40690 56754
L40653 56792
L40578 56829
L40390 56829
L40315 56792
L40278 56754
" />
<path d="M41103 56829
L41253 56829
L41328 56792
L41365 56754
L41440 56642
L41478 56492
L41478 56192
L41440 56117
L41403 56079
L41328 56042
L41178 56042
L41103 56079
L41065 56117
L41028 56192
L41028 56379
L41065 56454
L41103 56492
L41178 56529
L41328 56529
L41403 56492
L41440 56454
L41478 56379
" />
<path d="M42228 56829
L41778 56829
" />
<path d="M42003 56829
L42003 56042
L41928 56154
L41853 56229
L41778 56267
" />
<path d="M42528 56042
L42528 56192
" />
<path d="M42828 56042
L42828 56192
" />
<path d="M43990 57129
L43952 57092
L43877 56979
L43840 56904
L43802 56792
L43765 56604
L43765 56454
L43802 56267
L43840 56154
L43877 56079
L43952 55967
L43990 55929
" />
<path d="M44627 56304
L44627 56829
" />
<path d="M44440 56004
L44252 56567
L44740 56567
" />
<path d="M45640 56829
L45640 56042
" />
<path d="M45977 56829
L45977 56417
L45940 56342
L45865 56304
L45752 56304
L45677 56342
L45640 56379
" />
<path d="M46465 56829
L46390 56792
L46352 56754
L46315 56679
L46315 56454
L46352 56379
L46390 56342
L46465 56304
L46577 56304
L46652 56342
L46690 56379
L46727 56454
L46727 56679
L46690 56754
L46652 56792
L46577 56829
L46465 56829
" />
<path d="M47177 56829
L47102 56792
L47064 56717
L47064 56042
" />
<path d="M47777 56792
L47702 56829
L47552 56829
L47477 56792
L47439 56717
L47439 56417
L47477 56342
L47552 56304
L47702 56304
L47777 56342
L47814 56417
L47814 56492
L47439 56567
" />
<path d="M48114 56792
L48189 56829
L48339 56829
L48414 56792
L48452 56717
L48452 56679
L48414 56604
L48339 56567
L48227 56567
L48152 56529
L48114 56454
L48114 56417
L48152 56342
L48227 56304
L48339 56304
L48414 56342
" />
<path d="M48714 57129
L48752 57092
L48827 56979
L48864 56904
L48902 56792
L48939 56604
L48939 56454
L48902 56267
L48864 56154
L48827 56079
L48752 55967
L48714 55929
" />
</g><path d="M29140 57339
L29927 58127
" />
<path d="M29927 57339
L29140 58127
" />
<path style="fill:#000000; fill-opacity:0.0; 
stroke:#000000; stroke-width:78.739983; stroke-opacity:1; 
stroke-linecap:round; stroke-linejoin:round;fill:none"
d="M 29812.447127,58011.789680
29812.447127,57455.007260
29255.664707,57455.007260
29255.664707,58011.789680
Z" /> 
</g>
<g style="fill:#000000; fill-opacity:0.0; 
stroke:#000000; stroke-width:114.034937; stroke-opacity:1; 
stroke-linecap:round; stroke-linejoin:round;">
</g>
<g style="fill:#000000; fill-opacity:0.0; 
stroke:#000000; stroke-width:78.739983; stroke-opacity:1; 
stroke-linecap:round; stroke-linejoin:round;">
<text x="30715.158519" y="58127.098957"
textLength="18451.442880" font-size="1049.868346" lengthAdjust="spacingAndGlyphs"
text-anchor="start" opacity="0">3.200mm / 0.1260" (4 holes)</text>
<g class="stroked-text"><desc>3.200mm / 0.1260" (4 holes)</desc>
<path d="M30867 57302
L31354 57302
L31091 57602
L31204 57602
L31279 57639
L31316 57677
L31354 57752
L31354 57939
L31316 58014
L31279 58052
L31204 58089
L30979 58089
L30904 58052
L30867 58014
" />
<path d="M31691 58014
L31729 58052
L31691 58089
L31654 58052
L31691 58014
L31691 58089
" />
<path d="M32029 57377
L32066 57339
L32141 57302
L32329 57302
L32404 57339
L32441 57377
L32479 57452
L32479 57527
L32441 57639
L31991 58089
L32479 58089
" />
<path d="M32966 57302
L33041 57302
L33116 57339
L33154 57377
L33191 57452
L33229 57602
L33229 57789
L33191 57939
L33154 58014
L33116 58052
L33041 58089
L32966 58089
L32891 58052
L32854 58014
L32816 57939
L32779 57789
L32779 57602
L32816 57452
L32854 57377
L32891 57339
L32966 57302
" />
<path d="M33716 57302
L33791 57302
L33866 57339
L33904 57377
L33941 57452
L33979 57602
L33979 57789
L33941 57939
L33904 58014
L33866 58052
L33791 58089
L33716 58089
L33641 58052
L33604 58014
L33566 57939
L33529 57789
L33529 57602
L33566 57452
L33604 57377
L33641 57339
L33716 57302
" />
<path d="M34316 58089
L34316 57564
" />
<path d="M34316 57639
L34354 57602
L34429 57564
L34541 57564
L34616 57602
L34654 57677
L34654 58089
" />
<path d="M34654 57677
L34691 57602
L34766 57564
L34879 57564
L34954 57602
L34991 57677
L34991 58089
" />
<path d="M35366 58089
L35366 57564
" />
<path d="M35366 57639
L35403 57602
L35478 57564
L35591 57564
L35666 57602
L35703 57677
L35703 58089
" />
<path d="M35703 57677
L35741 57602
L35816 57564
L35928 57564
L36003 57602
L36041 57677
L36041 58089
" />
<path d="M37578 57264
L36903 58277
" />
<path d="M38591 57302
L38666 57302
L38741 57339
L38778 57377
L38816 57452
L38853 57602
L38853 57789
L38816 57939
L38778 58014
L38741 58052
L38666 58089
L38591 58089
L38516 58052
L38478 58014
L38441 57939
L38403 57789
L38403 57602
L38441 57452
L38478 57377
L38516 57339
L38591 57302
" />
<path d="M39190 58014
L39228 58052
L39190 58089
L39153 58052
L39190 58014
L39190 58089
" />
<path d="M39978 58089
L39528 58089
" />
<path d="M39753 58089
L39753 57302
L39678 57414
L39603 57489
L39528 57527
" />
<path d="M40278 57377
L40315 57339
L40390 57302
L40578 57302
L40653 57339
L40690 57377
L40728 57452
L40728 57527
L40690 57639
L40240 58089
L40728 58089
" />
<path d="M41403 57302
L41253 57302
L41178 57339
L41140 57377
L41065 57489
L41028 57639
L41028 57939
L41065 58014
L41103 58052
L41178 58089
L41328 58089
L41403 58052
L41440 58014
L41478 57939
L41478 57752
L41440 57677
L41403 57639
L41328 57602
L41178 57602
L41103 57639
L41065 57677
L41028 57752
" />
<path d="M41965 57302
L42040 57302
L42115 57339
L42153 57377
L42190 57452
L42228 57602
L42228 57789
L42190 57939
L42153 58014
L42115 58052
L42040 58089
L41965 58089
L41890 58052
L41853 58014
L41815 57939
L41778 57789
L41778 57602
L41815 57452
L41853 57377
L41890 57339
L41965 57302
" />
<path d="M42528 57302
L42528 57452
" />
<path d="M42828 57302
L42828 57452
" />
<path d="M43990 58389
L43952 58352
L43877 58239
L43840 58164
L43802 58052
L43765 57864
L43765 57714
L43802 57527
L43840 57414
L43877 57339
L43952 57227
L43990 57189
" />
<path d="M44627 57564
L44627 58089
" />
<path d="M44440 57264
L44252 57827
L44740 57827
" />
<path d="M45640 58089
L45640 57302
" />
<path d="M45977 58089
L45977 57677
L45940 57602
L45865 57564
L45752 57564
L45677 57602
L45640 57639
" />
<path d="M46465 58089
L46390 58052
L46352 58014
L46315 57939
L46315 57714
L46352 57639
L46390 57602
L46465 57564
L46577 57564
L46652 57602
L46690 57639
L46727 57714
L46727 57939
L46690 58014
L46652 58052
L46577 58089
L46465 58089
" />
<path d="M47177 58089
L47102 58052
L47064 57977
L47064 57302
" />
<path d="M47777 58052
L47702 58089
L47552 58089
L47477 58052
L47439 57977
L47439 57677
L47477 57602
L47552 57564
L47702 57564
L47777 57602
L47814 57677
L47814 57752
L47439 57827
" />
<path d="M48114 58052
L48189 58089
L48339 58089
L48414 58052
L48452 57977
L48452 57939
L48414 57864
L48339 57827
L48227 57827
L48152 57789
L48114 57714
L48114 57677
L48152 57602
L48227 57564
L48339 57564
L48414 57602
" />
<path d="M48714 58389
L48752 58352
L48827 58239
L48864 58164
L48902 58052
L48939 57864
L48939 57714
L48902 57527
L48864 57414
L48827 57339
L48752 57227
L48714 57189
" />
</g><path d="M29140 58599
L29927 59386
" />
<path d="M29927 58599
L29140 59386
" />
<path style="fill:#000000; fill-opacity:0.0; 
stroke:#000000; stroke-width:78.739983; stroke-opacity:1; 
stroke-linecap:round; stroke-linejoin:round;fill:none"
d="M 29534.055917,59386.940972
29927.756404,58993.240485
29534.055917,58599.539998
29140.355430,58993.240485
Z" /> 
</g>
<g style="fill:#000000; fill-opacity:0.0; 
stroke:#000000; stroke-width:114.034937; stroke-opacity:1; 
stroke-linecap:round; stroke-linejoin:round;">
</g>
<g style="fill:#000000; fill-opacity:0.0; 
stroke:#000000; stroke-width:78.739983; stroke-opacity:1; 
stroke-linecap:round; stroke-linejoin:round;">
<text x="30715.158519" y="59386.940972"
textLength="18451.442880" font-size="1049.868346" lengthAdjust="spacingAndGlyphs"
text-anchor="start" opacity="0">3.300mm / 0.1299" (2 holes)</text>
<g class="stroked-text"><desc>3.300mm / 0.1299" (2 holes)</desc>
<path d="M30867 58562
L31354 58562
L31091 58862
L31204 58862
L31279 58899
L31316 58936
L31354 59011
L31354 59199
L31316 59274
L31279 59311
L31204 59349
L30979 59349
L30904 59311
L30867 59274
" />
<path d="M31691 59274
L31729 59311
L31691 59349
L31654 59311
L31691 59274
L31691 59349
" />
<path d="M31991 58562
L32479 58562
L32216 58862
L32329 58862
L32404 58899
L32441 58936
L32479 59011
L32479 59199
L32441 59274
L32404 59311
L32329 59349
L32104 59349
L32029 59311
L31991 59274
" />
<path d="M32966 58562
L33041 58562
L33116 58599
L33154 58637
L33191 58712
L33229 58862
L33229 59049
L33191 59199
L33154 59274
L33116 59311
L33041 59349
L32966 59349
L32891 59311
L32854 59274
L32816 59199
L32779 59049
L32779 58862
L32816 58712
L32854 58637
L32891 58599
L32966 58562
" />
<path d="M33716 58562
L33791 58562
L33866 58599
L33904 58637
L33941 58712
L33979 58862
L33979 59049
L33941 59199
L33904 59274
L33866 59311
L33791 59349
L33716 59349
L33641 59311
L33604 59274
L33566 59199
L33529 59049
L33529 58862
L33566 58712
L33604 58637
L33641 58599
L33716 58562
" />
<path d="M34316 59349
L34316 58824
" />
<path d="M34316 58899
L34354 58862
L34429 58824
L34541 58824
L34616 58862
L34654 58936
L34654 59349
" />
<path d="M34654 58936
L34691 58862
L34766 58824
L34879 58824
L34954 58862
L34991 58936
L34991 59349
" />
<path d="M35366 59349
L35366 58824
" />
<path d="M35366 58899
L35403 58862
L35478 58824
L35591 58824
L35666 58862
L35703 58936
L35703 59349
" />
<path d="M35703 58936
L35741 58862
L35816 58824
L35928 58824
L36003 58862
L36041 58936
L36041 59349
" />
<path d="M37578 58524
L36903 59536
" />
<path d="M38591 58562
L38666 58562
L38741 58599
L38778 58637
L38816 58712
L38853 58862
L38853 59049
L38816 59199
L38778 59274
L38741 59311
L38666 59349
L38591 59349
L38516 59311
L38478 59274
L38441 59199
L38403 59049
L38403 58862
L38441 58712
L38478 58637
L38516 58599
L38591 58562
" />
<path d="M39190 59274
L39228 59311
L39190 59349
L39153 59311
L39190 59274
L39190 59349
" />
<path d="M39978 59349
L39528 59349
" />
<path d="M39753 59349
L39753 58562
L39678 58674
L39603 58749
L39528 58787
" />
<path d="M40278 58637
L40315 58599
L40390 58562
L40578 58562
L40653 58599
L40690 58637
L40728 58712
L40728 58787
L40690 58899
L40240 59349
L40728 59349
" />
<path d="M41103 59349
L41253 59349
L41328 59311
L41365 59274
L41440 59161
L41478 59011
L41478 58712
L41440 58637
L41403 58599
L41328 58562
L41178 58562
L41103 58599
L41065 58637
L41028 58712
L41028 58899
L41065 58974
L41103 59011
L41178 59049
L41328 59049
L41403 59011
L41440 58974
L41478 58899
" />
<path d="M41853 59349
L42003 59349
L42078 59311
L42115 59274
L42190 59161
L42228 59011
L42228 58712
L42190 58637
L42153 58599
L42078 58562
L41928 58562
L41853 58599
L41815 58637
L41778 58712
L41778 58899
L41815 58974
L41853 59011
L41928 59049
L42078 59049
L42153 59011
L42190 58974
L42228 58899
" />
<path d="M42528 58562
L42528 58712
" />
<path d="M42828 58562
L42828 58712
" />
<path d="M43990 59649
L43952 59611
L43877 59499
L43840 59424
L43802 59311
L43765 59124
L43765 58974
L43802 58787
L43840 58674
L43877 58599
L43952 58487
L43990 58449
" />
<path d="M44252 58637
L44290 58599
L44365 58562
L44552 58562
L44627 58599
L44665 58637
L44702 58712
L44702 58787
L44665 58899
L44215 59349
L44702 59349
" />
<path d="M45640 59349
L45640 58562
" />
<path d="M45977 59349
L45977 58936
L45940 58862
L45865 58824
L45752 58824
L45677 58862
L45640 58899
" />
<path d="M46465 59349
L46390 59311
L46352 59274
L46315 59199
L46315 58974
L46352 58899
L46390 58862
L46465 58824
L46577 58824
L46652 58862
L46690 58899
L46727 58974
L46727 59199
L46690 59274
L46652 59311
L46577 59349
L46465 59349
" />
<path d="M47177 59349
L47102 59311
L47064 59236
L47064 58562
" />
<path d="M47777 59311
L47702 59349
L47552 59349
L47477 59311
L47439 59236
L47439 58936
L47477 58862
L47552 58824
L47702 58824
L47777 58862
L47814 58936
L47814 59011
L47439 59086
" />
<path d="M48114 59311
L48189 59349
L48339 59349
L48414 59311
L48452 59236
L48452 59199
L48414 59124
L48339 59086
L48227 59086
L48152 59049
L48114 58974
L48114 58936
L48152 58862
L48227 58824
L48339 58824
L48414 58862
" />
<path d="M48714 59649
L48752 59611
L48827 59499
L48864 59424
L48902 59311
L48939 59124
L48939 58974
L48902 58787
L48864 58674
L48827 58599
L48752 58487
L48714 58449
" />
</g></g> 
</svg>
