<?xml version="1.0" standalone="no"?>
 <!DOCTYPE svg PUBLIC "-//W3C//DTD SVG 1.1//EN" 
 "http://www.w3.org/Graphics/SVG/1.1/DTD/svg11.dtd"> 
<svg
  xmlns:svg="http://www.w3.org/2000/svg"
  xmlns="http://www.w3.org/2000/svg"
  xmlns:xlink="http://www.w3.org/1999/xlink"
  version="1.1"
  width="29.700220cm" height="21.000720cm" viewBox="0 0 116930 82680">
<title>SVG Picture created as FilamentDryer-NPTH-drl_map.svg date 2022/06/24 17:11:56 </title>
  <desc>Picture generated by PCBNEW </desc>
<g style="fill:#000000; fill-opacity:1.000000;stroke:#000000; stroke-opacity:1.000000;
stroke-linecap:round; stroke-linejoin:round;"
 transform="translate(0 0) scale(1 1)">
</g>
<g style="fill:#000000; fill-opacity:0.0; 
stroke:#000000; stroke-width:0.000000; stroke-opacity:1; 
stroke-linecap:round; stroke-linejoin:round;">
</g>
<g style="fill:#000000; fill-opacity:0.0; 
stroke:#000000; stroke-width:57.017468; stroke-opacity:1; 
stroke-linecap:round; stroke-linejoin:round;">
<path d="M84122 47610
L32807 47610
" />
<path d="M84122.860614 47610.987538 A2850.873416 2850.873416 0.0 0 0 86973.734030 44760.114122" />
<path d="M29956 4847
L29956 44760
" />
<path d="M32807.139124 1997.012881 A2850.873416 2850.873416 0.0 0 0 29956.265708 4847.886297" />
<path d="M84122 1997
L32807 1997
" />
<path d="M86973.734030 4847.886297 A2850.873416 2850.873416 0.0 0 0 84122.860614 1997.012881" />
<path d="M29956.265708 44760.114122 A2850.873416 2850.873416 0.0 0 0 32807.139124 47610.987538" />
<path d="M86973 4847
L86973 44760
" />
</g>
<g style="fill:#000000; fill-opacity:0.0; 
stroke:#000000; stroke-width:114.034937; stroke-opacity:1; 
stroke-linecap:round; stroke-linejoin:round;">
</g>
<g style="fill:#000000; fill-opacity:0.0; 
stroke:#000000; stroke-width:62.719215; stroke-opacity:1; 
stroke-linecap:round; stroke-linejoin:round;">
<path d="M63114 19678
L63741 20305
" />
<path d="M63741 19678
L63114 20305
" />
</g>
<g style="fill:#000000; fill-opacity:0.0; 
stroke:#000000; stroke-width:199.561139; stroke-opacity:1; 
stroke-linecap:round; stroke-linejoin:round;">
<circle cx="38252.307349" cy="6705.629450" r="997.805696" /> 
<circle cx="74697.873101" cy="37329.027476" r="997.805696" /> 
<circle cx="82663.213425" cy="37329.027476" r="997.805696" /> 
</g>
<g style="fill:#000000; fill-opacity:0.0; 
stroke:#000000; stroke-width:114.034937; stroke-opacity:1; 
stroke-linecap:round; stroke-linejoin:round;">
</g>
<g style="fill:#000000; fill-opacity:0.0; 
stroke:#000000; stroke-width:78.739983; stroke-opacity:1; 
stroke-linecap:round; stroke-linejoin:round;">
<text x="30715.158519" y="48899.338288"
textLength="5853.018167" font-size="1049.868346" lengthAdjust="spacingAndGlyphs"
text-anchor="start" opacity="0">Drill Map:</text>
<g class="stroked-text"><desc>Drill Map:</desc>
<path d="M30942 48861
L30942 48074
L31129 48074
L31241 48111
L31316 48186
L31354 48261
L31391 48411
L31391 48524
L31354 48674
L31316 48749
L31241 48824
L31129 48861
L30942 48861
" />
<path d="M31729 48861
L31729 48336
" />
<path d="M31729 48486
L31766 48411
L31804 48374
L31879 48336
L31954 48336
" />
<path d="M32216 48861
L32216 48336
" />
<path d="M32216 48074
L32179 48111
L32216 48149
L32254 48111
L32216 48074
L32216 48149
" />
<path d="M32704 48861
L32629 48824
L32591 48749
L32591 48074
" />
<path d="M33116 48861
L33041 48824
L33004 48749
L33004 48074
" />
<path d="M34016 48861
L34016 48074
L34279 48636
L34541 48074
L34541 48861
" />
<path d="M35253 48861
L35253 48449
L35216 48374
L35141 48336
L34991 48336
L34916 48374
" />
<path d="M35253 48824
L35178 48861
L34991 48861
L34916 48824
L34879 48749
L34879 48674
L34916 48599
L34991 48561
L35178 48561
L35253 48524
" />
<path d="M35628 48336
L35628 49124
" />
<path d="M35628 48374
L35703 48336
L35853 48336
L35928 48374
L35966 48411
L36003 48486
L36003 48711
L35966 48786
L35928 48824
L35853 48861
L35703 48861
L35628 48824
" />
<path d="M36341 48786
L36378 48824
L36341 48861
L36303 48824
L36341 48786
L36341 48861
" />
<path d="M36341 48374
L36378 48411
L36341 48449
L36303 48411
L36341 48374
L36341 48449
" />
</g></g>
<g style="fill:#000000; fill-opacity:0.0; 
stroke:#000000; stroke-width:62.719215; stroke-opacity:1; 
stroke-linecap:round; stroke-linejoin:round;">
<path d="M29300 49845
L29927 50472
" />
<path d="M29927 49845
L29300 50472
" />
</g>
<g style="fill:#000000; fill-opacity:0.0; 
stroke:#000000; stroke-width:114.034937; stroke-opacity:1; 
stroke-linecap:round; stroke-linejoin:round;">
</g>
<g style="fill:#000000; fill-opacity:0.0; 
stroke:#000000; stroke-width:78.739983; stroke-opacity:1; 
stroke-linecap:round; stroke-linejoin:round;">
<text x="30715.158519" y="50552.881360"
textLength="25613.047296" font-size="1049.868346" lengthAdjust="spacingAndGlyphs"
text-anchor="start" opacity="0">1.100mm / 0.0433" (1 hole) (not plated)</text>
<g class="stroked-text"><desc>1.100mm / 0.0433" (1 hole) (not plated)</desc>
<path d="M31354 50515
L30904 50515
" />
<path d="M31129 50515
L31129 49727
L31054 49840
L30979 49915
L30904 49952
" />
<path d="M31691 50440
L31729 50477
L31691 50515
L31654 50477
L31691 50440
L31691 50515
" />
<path d="M32479 50515
L32029 50515
" />
<path d="M32254 50515
L32254 49727
L32179 49840
L32104 49915
L32029 49952
" />
<path d="M32966 49727
L33041 49727
L33116 49765
L33154 49802
L33191 49877
L33229 50027
L33229 50215
L33191 50365
L33154 50440
L33116 50477
L33041 50515
L32966 50515
L32891 50477
L32854 50440
L32816 50365
L32779 50215
L32779 50027
L32816 49877
L32854 49802
L32891 49765
L32966 49727
" />
<path d="M33716 49727
L33791 49727
L33866 49765
L33904 49802
L33941 49877
L33979 50027
L33979 50215
L33941 50365
L33904 50440
L33866 50477
L33791 50515
L33716 50515
L33641 50477
L33604 50440
L33566 50365
L33529 50215
L33529 50027
L33566 49877
L33604 49802
L33641 49765
L33716 49727
" />
<path d="M34316 50515
L34316 49990
" />
<path d="M34316 50065
L34354 50027
L34429 49990
L34541 49990
L34616 50027
L34654 50102
L34654 50515
" />
<path d="M34654 50102
L34691 50027
L34766 49990
L34879 49990
L34954 50027
L34991 50102
L34991 50515
" />
<path d="M35366 50515
L35366 49990
" />
<path d="M35366 50065
L35403 50027
L35478 49990
L35591 49990
L35666 50027
L35703 50102
L35703 50515
" />
<path d="M35703 50102
L35741 50027
L35816 49990
L35928 49990
L36003 50027
L36041 50102
L36041 50515
" />
<path d="M37578 49690
L36903 50702
" />
<path d="M38591 49727
L38666 49727
L38741 49765
L38778 49802
L38816 49877
L38853 50027
L38853 50215
L38816 50365
L38778 50440
L38741 50477
L38666 50515
L38591 50515
L38516 50477
L38478 50440
L38441 50365
L38403 50215
L38403 50027
L38441 49877
L38478 49802
L38516 49765
L38591 49727
" />
<path d="M39190 50440
L39228 50477
L39190 50515
L39153 50477
L39190 50440
L39190 50515
" />
<path d="M39715 49727
L39790 49727
L39865 49765
L39903 49802
L39940 49877
L39978 50027
L39978 50215
L39940 50365
L39903 50440
L39865 50477
L39790 50515
L39715 50515
L39640 50477
L39603 50440
L39565 50365
L39528 50215
L39528 50027
L39565 49877
L39603 49802
L39640 49765
L39715 49727
" />
<path d="M40653 49990
L40653 50515
" />
<path d="M40465 49690
L40278 50252
L40765 50252
" />
<path d="M40990 49727
L41478 49727
L41215 50027
L41328 50027
L41403 50065
L41440 50102
L41478 50177
L41478 50365
L41440 50440
L41403 50477
L41328 50515
L41103 50515
L41028 50477
L40990 50440
" />
<path d="M41740 49727
L42228 49727
L41965 50027
L42078 50027
L42153 50065
L42190 50102
L42228 50177
L42228 50365
L42190 50440
L42153 50477
L42078 50515
L41853 50515
L41778 50477
L41740 50440
" />
<path d="M42528 49727
L42528 49877
" />
<path d="M42828 49727
L42828 49877
" />
<path d="M43990 50815
L43952 50777
L43877 50665
L43840 50590
L43802 50477
L43765 50290
L43765 50140
L43802 49952
L43840 49840
L43877 49765
L43952 49652
L43990 49615
" />
<path d="M44702 50515
L44252 50515
" />
<path d="M44477 50515
L44477 49727
L44402 49840
L44327 49915
L44252 49952
" />
<path d="M45640 50515
L45640 49727
" />
<path d="M45977 50515
L45977 50102
L45940 50027
L45865 49990
L45752 49990
L45677 50027
L45640 50065
" />
<path d="M46465 50515
L46390 50477
L46352 50440
L46315 50365
L46315 50140
L46352 50065
L46390 50027
L46465 49990
L46577 49990
L46652 50027
L46690 50065
L46727 50140
L46727 50365
L46690 50440
L46652 50477
L46577 50515
L46465 50515
" />
<path d="M47177 50515
L47102 50477
L47064 50402
L47064 49727
" />
<path d="M47777 50477
L47702 50515
L47552 50515
L47477 50477
L47439 50402
L47439 50102
L47477 50027
L47552 49990
L47702 49990
L47777 50027
L47814 50102
L47814 50177
L47439 50252
" />
<path d="M48077 50815
L48114 50777
L48189 50665
L48227 50590
L48264 50477
L48302 50290
L48302 50140
L48264 49952
L48227 49840
L48189 49765
L48114 49652
L48077 49615
" />
<path d="M49502 50815
L49464 50777
L49389 50665
L49352 50590
L49314 50477
L49277 50290
L49277 50140
L49314 49952
L49352 49840
L49389 49765
L49464 49652
L49502 49615
" />
<path d="M49802 49990
L49802 50515
" />
<path d="M49802 50065
L49839 50027
L49914 49990
L50027 49990
L50102 50027
L50139 50102
L50139 50515
" />
<path d="M50627 50515
L50552 50477
L50514 50440
L50477 50365
L50477 50140
L50514 50065
L50552 50027
L50627 49990
L50739 49990
L50814 50027
L50852 50065
L50889 50140
L50889 50365
L50852 50440
L50814 50477
L50739 50515
L50627 50515
" />
<path d="M51114 49990
L51414 49990
" />
<path d="M51226 49727
L51226 50402
L51264 50477
L51339 50515
L51414 50515
" />
<path d="M52276 49990
L52276 50777
" />
<path d="M52276 50027
L52351 49990
L52501 49990
L52576 50027
L52614 50065
L52651 50140
L52651 50365
L52614 50440
L52576 50477
L52501 50515
L52351 50515
L52276 50477
" />
<path d="M53101 50515
L53026 50477
L52989 50402
L52989 49727
" />
<path d="M53739 50515
L53739 50102
L53701 50027
L53626 49990
L53476 49990
L53401 50027
" />
<path d="M53739 50477
L53664 50515
L53476 50515
L53401 50477
L53364 50402
L53364 50327
L53401 50252
L53476 50215
L53664 50215
L53739 50177
" />
<path d="M54001 49990
L54301 49990
" />
<path d="M54114 49727
L54114 50402
L54151 50477
L54226 50515
L54301 50515
" />
<path d="M54864 50477
L54789 50515
L54639 50515
L54564 50477
L54526 50402
L54526 50102
L54564 50027
L54639 49990
L54789 49990
L54864 50027
L54901 50102
L54901 50177
L54526 50252
" />
<path d="M55576 50515
L55576 49727
" />
<path d="M55576 50477
L55501 50515
L55351 50515
L55276 50477
L55238 50440
L55201 50365
L55201 50140
L55238 50065
L55276 50027
L55351 49990
L55501 49990
L55576 50027
" />
<path d="M55876 50815
L55913 50777
L55988 50665
L56026 50590
L56063 50477
L56101 50290
L56101 50140
L56063 49952
L56026 49840
L55988 49765
L55913 49652
L55876 49615
" />
</g><circle cx="29534.055917" cy="51258.813495" r="393.700487" /> 
</g>
<g style="fill:#000000; fill-opacity:0.0; 
stroke:#000000; stroke-width:114.034937; stroke-opacity:1; 
stroke-linecap:round; stroke-linejoin:round;">
</g>
<g style="fill:#000000; fill-opacity:0.0; 
stroke:#000000; stroke-width:78.739983; stroke-opacity:1; 
stroke-linecap:round; stroke-linejoin:round;">
<text x="30715.158519" y="51652.513982"
textLength="26250.467241" font-size="1049.868346" lengthAdjust="spacingAndGlyphs"
text-anchor="start" opacity="0">3.500mm / 0.1378" (3 holes) (not plated)</text>
<g class="stroked-text"><desc>3.500mm / 0.1378" (3 holes) (not plated)</desc>
<path d="M30867 50827
L31354 50827
L31091 51127
L31204 51127
L31279 51165
L31316 51202
L31354 51277
L31354 51465
L31316 51540
L31279 51577
L31204 51615
L30979 51615
L30904 51577
L30867 51540
" />
<path d="M31691 51540
L31729 51577
L31691 51615
L31654 51577
L31691 51540
L31691 51615
" />
<path d="M32441 50827
L32066 50827
L32029 51202
L32066 51165
L32141 51127
L32329 51127
L32404 51165
L32441 51202
L32479 51277
L32479 51465
L32441 51540
L32404 51577
L32329 51615
L32141 51615
L32066 51577
L32029 51540
" />
<path d="M32966 50827
L33041 50827
L33116 50865
L33154 50902
L33191 50977
L33229 51127
L33229 51315
L33191 51465
L33154 51540
L33116 51577
L33041 51615
L32966 51615
L32891 51577
L32854 51540
L32816 51465
L32779 51315
L32779 51127
L32816 50977
L32854 50902
L32891 50865
L32966 50827
" />
<path d="M33716 50827
L33791 50827
L33866 50865
L33904 50902
L33941 50977
L33979 51127
L33979 51315
L33941 51465
L33904 51540
L33866 51577
L33791 51615
L33716 51615
L33641 51577
L33604 51540
L33566 51465
L33529 51315
L33529 51127
L33566 50977
L33604 50902
L33641 50865
L33716 50827
" />
<path d="M34316 51615
L34316 51090
" />
<path d="M34316 51165
L34354 51127
L34429 51090
L34541 51090
L34616 51127
L34654 51202
L34654 51615
" />
<path d="M34654 51202
L34691 51127
L34766 51090
L34879 51090
L34954 51127
L34991 51202
L34991 51615
" />
<path d="M35366 51615
L35366 51090
" />
<path d="M35366 51165
L35403 51127
L35478 51090
L35591 51090
L35666 51127
L35703 51202
L35703 51615
" />
<path d="M35703 51202
L35741 51127
L35816 51090
L35928 51090
L36003 51127
L36041 51202
L36041 51615
" />
<path d="M37578 50790
L36903 51802
" />
<path d="M38591 50827
L38666 50827
L38741 50865
L38778 50902
L38816 50977
L38853 51127
L38853 51315
L38816 51465
L38778 51540
L38741 51577
L38666 51615
L38591 51615
L38516 51577
L38478 51540
L38441 51465
L38403 51315
L38403 51127
L38441 50977
L38478 50902
L38516 50865
L38591 50827
" />
<path d="M39190 51540
L39228 51577
L39190 51615
L39153 51577
L39190 51540
L39190 51615
" />
<path d="M39978 51615
L39528 51615
" />
<path d="M39753 51615
L39753 50827
L39678 50940
L39603 51015
L39528 51052
" />
<path d="M40240 50827
L40728 50827
L40465 51127
L40578 51127
L40653 51165
L40690 51202
L40728 51277
L40728 51465
L40690 51540
L40653 51577
L40578 51615
L40353 51615
L40278 51577
L40240 51540
" />
<path d="M40990 50827
L41515 50827
L41178 51615
" />
<path d="M41928 51165
L41853 51127
L41815 51090
L41778 51015
L41778 50977
L41815 50902
L41853 50865
L41928 50827
L42078 50827
L42153 50865
L42190 50902
L42228 50977
L42228 51015
L42190 51090
L42153 51127
L42078 51165
L41928 51165
L41853 51202
L41815 51240
L41778 51315
L41778 51465
L41815 51540
L41853 51577
L41928 51615
L42078 51615
L42153 51577
L42190 51540
L42228 51465
L42228 51315
L42190 51240
L42153 51202
L42078 51165
" />
<path d="M42528 50827
L42528 50977
" />
<path d="M42828 50827
L42828 50977
" />
<path d="M43990 51914
L43952 51877
L43877 51764
L43840 51690
L43802 51577
L43765 51390
L43765 51240
L43802 51052
L43840 50940
L43877 50865
L43952 50752
L43990 50715
" />
<path d="M44215 50827
L44702 50827
L44440 51127
L44552 51127
L44627 51165
L44665 51202
L44702 51277
L44702 51465
L44665 51540
L44627 51577
L44552 51615
L44327 51615
L44252 51577
L44215 51540
" />
<path d="M45640 51615
L45640 50827
" />
<path d="M45977 51615
L45977 51202
L45940 51127
L45865 51090
L45752 51090
L45677 51127
L45640 51165
" />
<path d="M46465 51615
L46390 51577
L46352 51540
L46315 51465
L46315 51240
L46352 51165
L46390 51127
L46465 51090
L46577 51090
L46652 51127
L46690 51165
L46727 51240
L46727 51465
L46690 51540
L46652 51577
L46577 51615
L46465 51615
" />
<path d="M47177 51615
L47102 51577
L47064 51502
L47064 50827
" />
<path d="M47777 51577
L47702 51615
L47552 51615
L47477 51577
L47439 51502
L47439 51202
L47477 51127
L47552 51090
L47702 51090
L47777 51127
L47814 51202
L47814 51277
L47439 51352
" />
<path d="M48114 51577
L48189 51615
L48339 51615
L48414 51577
L48452 51502
L48452 51465
L48414 51390
L48339 51352
L48227 51352
L48152 51315
L48114 51240
L48114 51202
L48152 51127
L48227 51090
L48339 51090
L48414 51127
" />
<path d="M48714 51914
L48752 51877
L48827 51764
L48864 51690
L48902 51577
L48939 51390
L48939 51240
L48902 51052
L48864 50940
L48827 50865
L48752 50752
L48714 50715
" />
<path d="M50139 51914
L50102 51877
L50027 51764
L49989 51690
L49952 51577
L49914 51390
L49914 51240
L49952 51052
L49989 50940
L50027 50865
L50102 50752
L50139 50715
" />
<path d="M50439 51090
L50439 51615
" />
<path d="M50439 51165
L50477 51127
L50552 51090
L50664 51090
L50739 51127
L50777 51202
L50777 51615
" />
<path d="M51264 51615
L51189 51577
L51151 51540
L51114 51465
L51114 51240
L51151 51165
L51189 51127
L51264 51090
L51376 51090
L51451 51127
L51489 51165
L51526 51240
L51526 51465
L51489 51540
L51451 51577
L51376 51615
L51264 51615
" />
<path d="M51751 51090
L52051 51090
" />
<path d="M51864 50827
L51864 51502
L51901 51577
L51976 51615
L52051 51615
" />
<path d="M52914 51090
L52914 51877
" />
<path d="M52914 51127
L52989 51090
L53139 51090
L53214 51127
L53251 51165
L53289 51240
L53289 51465
L53251 51540
L53214 51577
L53139 51615
L52989 51615
L52914 51577
" />
<path d="M53739 51615
L53664 51577
L53626 51502
L53626 50827
" />
<path d="M54376 51615
L54376 51202
L54339 51127
L54264 51090
L54114 51090
L54039 51127
" />
<path d="M54376 51577
L54301 51615
L54114 51615
L54039 51577
L54001 51502
L54001 51427
L54039 51352
L54114 51315
L54301 51315
L54376 51277
" />
<path d="M54639 51090
L54939 51090
" />
<path d="M54751 50827
L54751 51502
L54789 51577
L54864 51615
L54939 51615
" />
<path d="M55501 51577
L55426 51615
L55276 51615
L55201 51577
L55163 51502
L55163 51202
L55201 51127
L55276 51090
L55426 51090
L55501 51127
L55538 51202
L55538 51277
L55163 51352
" />
<path d="M56213 51615
L56213 50827
" />
<path d="M56213 51577
L56138 51615
L55988 51615
L55913 51577
L55876 51540
L55838 51465
L55838 51240
L55876 51165
L55913 51127
L55988 51090
L56138 51090
L56213 51127
" />
<path d="M56513 51914
L56551 51877
L56626 51764
L56663 51690
L56701 51577
L56738 51390
L56738 51240
L56701 51052
L56663 50940
L56626 50865
L56551 50752
L56513 50715
" />
</g></g> 
</svg>
